<svg width="122" height="114" viewBox="0 0 122 114" fill="none" xmlns="http://www.w3.org/2000/svg">
<mask id="mask0_719_19703" style="mask-type:alpha" maskUnits="userSpaceOnUse" x="3" y="0" width="115" height="114">
<path d="M60.8377 113.943C92.2627 113.943 117.738 88.4358 117.738 56.9714C117.738 25.5069 92.2627 0 60.8377 0C29.4126 0 3.9375 25.5069 3.9375 56.9714C3.9375 88.4358 29.4126 113.943 60.8377 113.943Z" fill="url(#paint0_linear_719_19703)"/>
</mask>
<g mask="url(#mask0_719_19703)">
<path d="M60.1176 113.277C91.5387 113.277 117.011 87.9191 117.011 56.6385C117.011 25.3579 91.5387 0 60.1176 0C28.6965 0 3.22461 25.3579 3.22461 56.6385C3.22461 87.9191 28.6965 113.277 60.1176 113.277Z" fill="url(#paint1_linear_719_19703)"/>
<path d="M80.4906 30.4468C77.8962 30.4468 75.793 32.55 75.793 35.1444V174.325H219.492V30.4468H80.4906ZM219.07 39.3908H210.489V30.7989H219.07V39.3908ZM147.818 93.1955V84.6037H156.399V93.1955H147.818ZM156.399 93.6181V102.21H147.818V93.6181H156.399ZM147.466 93.1955H138.885V84.6037H147.466V93.1955ZM147.466 93.6181V102.21H138.885V93.6181H147.466ZM138.463 102.21H129.882V93.6181H138.463V102.21ZM138.463 102.562V111.154H129.882V102.562H138.463ZM138.885 102.562H147.466V111.154H138.885V102.562ZM147.466 111.506V120.098H138.885V111.506H147.466ZM147.818 111.506H156.399V120.098H147.818V111.506ZM147.818 111.154V102.562H156.399V111.154H147.818ZM156.751 102.562H165.332V111.154H156.751V102.562ZM156.751 102.21V93.6181H165.332V102.21H156.751ZM156.751 93.1955V84.6037H165.332V93.1955H156.751ZM156.751 84.2516V75.6597H165.332V84.2516H156.751ZM156.399 84.2516H147.818V75.6597H156.399V84.2516ZM147.466 84.2516H138.885V75.6597H147.466V84.2516ZM138.463 84.2516H129.882V75.6597H138.463V84.2516ZM138.463 84.6037V93.1955H129.882V84.6037H138.463ZM129.531 93.1955H120.949V84.6037H129.531V93.1955ZM129.531 93.6181V102.21H120.949V93.6181H129.531ZM129.531 102.562V111.154H120.949V102.562H129.531ZM129.531 111.506V120.098H120.949V111.506H129.531ZM129.882 111.506H138.463V120.098H129.882V111.506ZM138.463 120.52V129.112H129.882V120.52H138.463ZM138.885 120.52H147.466V129.112H138.885V120.52ZM147.818 120.52H156.399V129.112H147.818V120.52ZM156.751 120.52H165.332V129.112H156.751V120.52ZM156.751 120.098V111.506H165.332V120.098H156.751ZM165.754 111.506H174.335V120.098H165.754V111.506ZM165.754 111.154V102.562H174.335V111.154H165.754ZM165.754 102.21V93.6181H174.335V102.21H165.754ZM165.754 93.1955V84.6037H174.335V93.1955H165.754ZM165.754 84.2516V75.6597H174.335V84.2516H165.754ZM165.754 75.3076V66.7157H174.335V75.3076H165.754ZM165.332 75.3076H156.751V66.7157H165.332V75.3076ZM156.399 75.3076H147.818V66.7157H156.399V75.3076ZM147.466 75.3076H138.885V66.7157H147.466V75.3076ZM138.463 75.3076H129.882V66.7157H138.463V75.3076ZM129.531 75.3076H120.949V66.7157H129.531V75.3076ZM129.531 75.6597V84.2516H120.949V75.6597H129.531ZM120.598 84.2516H112.017V75.6597H120.598V84.2516ZM120.598 84.6037V93.1955H112.017V84.6037H120.598ZM120.598 93.6181V102.21H112.017V93.6181H120.598ZM120.598 102.562V111.154H112.017V102.562H120.598ZM120.598 111.506V120.098H112.017V111.506H120.598ZM120.598 120.52V129.112H112.017V120.52H120.598ZM120.949 120.52H129.531V129.112H120.949V120.52ZM129.531 129.464V138.056H120.949V129.464H129.531ZM129.882 129.464H138.463V138.056H129.882V129.464ZM138.885 129.464H147.466V138.056H138.885V129.464ZM147.818 129.464H156.399V138.056H147.818V129.464ZM156.751 129.464H165.332V138.056H156.751V129.464ZM165.754 129.464H174.335V138.056H165.754V129.464ZM165.754 129.112V120.52H174.335V129.112H165.754ZM174.687 120.52H183.268V129.112H174.687V120.52ZM174.687 120.098V111.506H183.268V120.098H174.687ZM174.687 111.154V102.562H183.268V111.154H174.687ZM174.687 102.21V93.6181H183.268V102.21H174.687ZM174.687 93.1955V84.6037H183.268V93.1955H174.687ZM174.687 84.2516V75.6597H183.268V84.2516H174.687ZM174.687 75.3076V66.7157H183.268V75.3076H174.687ZM174.687 66.2932V57.7013H183.268V66.2932H174.687ZM174.335 66.2932H165.754V57.7013H174.335V66.2932ZM165.332 66.2932H156.751V57.7013H165.332V66.2932ZM156.399 66.2932H147.818V57.7013H156.399V66.2932ZM147.466 66.2932H138.885V57.7013H147.466V66.2932ZM138.463 66.2932H129.882V57.7013H138.463V66.2932ZM129.531 66.2932H120.949V57.7013H129.531V66.2932ZM120.598 66.2932H112.017V57.7013H120.598V66.2932ZM120.598 66.7157V75.3076H112.017V66.7157H120.598ZM111.595 75.3076H103.013V66.7157H111.595V75.3076ZM111.595 75.6597V84.2516H103.013V75.6597H111.595ZM111.595 84.6037V93.1955H103.013V84.6037H111.595ZM111.595 93.6181V102.21H103.013V93.6181H111.595ZM111.595 102.562V111.154H103.013V102.562H111.595ZM111.595 111.506V120.098H103.013V111.506H111.595ZM111.595 120.52V129.112H103.013V120.52H111.595ZM111.595 129.464V138.056H103.013V129.464H111.595ZM112.017 129.464H120.598V138.056H112.017V129.464ZM120.598 138.408V147H112.017V138.408H120.598ZM120.949 138.408H129.531V147H120.949V138.408ZM129.882 138.408H138.463V147H129.882V138.408ZM138.885 138.408H147.466V147H138.885V138.408ZM147.818 138.408H156.399V147H147.818V138.408ZM156.751 138.408H165.332V147H156.751V138.408ZM165.754 138.408H174.335V147H165.754V138.408ZM174.687 138.408H183.268V147H174.687V138.408ZM174.687 138.056V129.464H183.268V138.056H174.687ZM183.62 129.464H192.201V138.056H183.62V129.464ZM183.62 129.112V120.52H192.201V129.112H183.62ZM183.62 120.098V111.506H192.201V120.098H183.62ZM183.62 111.154V102.562H192.201V111.154H183.62ZM183.62 102.21V93.6181H192.201V102.21H183.62ZM183.62 93.1955V84.6037H192.201V93.1955H183.62ZM183.62 84.2516V75.6597H192.201V84.2516H183.62ZM183.62 75.3076V66.7157H192.201V75.3076H183.62ZM183.62 66.2932V57.7013H192.201V66.2932H183.62ZM183.62 57.3492V48.7573H192.201V57.3492H183.62ZM183.268 57.3492H174.687V48.7573H183.268V57.3492ZM174.335 57.3492H165.754V48.7573H174.335V57.3492ZM165.332 57.3492H156.751V48.7573H165.332V57.3492ZM156.399 57.3492H147.818V48.7573H156.399V57.3492ZM147.466 57.3492H138.885V48.7573H147.466V57.3492ZM138.463 57.3492H129.882V48.7573H138.463V57.3492ZM129.531 57.3492H120.949V48.7573H129.531V57.3492ZM120.598 57.3492H112.017V48.7573H120.598V57.3492ZM111.595 57.3492H103.013V48.7573H111.595V57.3492ZM111.595 57.7013V66.2932H103.013V57.7013H111.595ZM102.662 66.2932H94.0806V57.7013H102.662V66.2932ZM102.662 66.7157V75.3076H94.0806V66.7157H102.662ZM102.662 75.6597V84.2516H94.0806V75.6597H102.662ZM102.662 84.6037V93.1955H94.0806V84.6037H102.662ZM102.662 93.6181V102.21H94.0806V93.6181H102.662ZM102.662 102.562V111.154H94.0806V102.562H102.662ZM102.662 111.506V120.098H94.0806V111.506H102.662ZM102.662 120.52V129.112H94.0806V120.52H102.662ZM102.662 129.464V138.056H94.0806V129.464H102.662ZM102.662 138.408V147H94.0806V138.408H102.662ZM103.013 138.408H111.595V147H103.013V138.408ZM111.595 147.423V156.015H103.013V147.423H111.595ZM112.017 147.423H120.598V156.015H112.017V147.423ZM120.949 147.423H129.531V156.015H120.949V147.423ZM129.882 147.423H138.463V156.015H129.882V147.423ZM138.885 147.423H147.466V156.015H138.885V147.423ZM147.818 147.423H156.399V156.015H147.818V147.423ZM156.751 147.423H165.332V156.015H156.751V147.423ZM165.754 147.423H174.335V156.015H165.754V147.423ZM174.687 147.423H183.268V156.015H174.687V147.423ZM183.62 147.423H192.201V156.015H183.62V147.423ZM183.62 147V138.408H192.201V147H183.62ZM192.623 138.408H201.204V147H192.623V138.408ZM192.623 138.056V129.464H201.204V138.056H192.623ZM192.623 129.112V120.52H201.204V129.112H192.623ZM192.623 120.098V111.506H201.204V120.098H192.623ZM192.623 111.154V102.562H201.204V111.154H192.623ZM192.623 102.21V93.6181H201.204V102.21H192.623ZM192.623 93.1955V84.6037H201.204V93.1955H192.623ZM192.623 84.2516V75.6597H201.204V84.2516H192.623ZM192.623 75.3076V66.7157H201.204V75.3076H192.623ZM192.623 66.2932V57.7013H201.204V66.2932H192.623ZM192.623 57.3492V48.7573H201.204V57.3492H192.623ZM192.623 48.4052V39.8133H201.204V48.4052H192.623ZM192.201 48.4052H183.62V39.8133H192.201V48.4052ZM183.268 48.4052H174.687V39.8133H183.268V48.4052ZM174.335 48.4052H165.754V39.8133H174.335V48.4052ZM165.332 48.4052H156.751V39.8133H165.332V48.4052ZM156.399 48.4052H147.818V39.8133H156.399V48.4052ZM147.466 48.4052H138.885V39.8133H147.466V48.4052ZM138.463 48.4052H129.882V39.8133H138.463V48.4052ZM129.531 48.4052H120.949V39.8133H129.531V48.4052ZM120.598 48.4052H112.017V39.8133H120.598V48.4052ZM111.595 48.4052H103.013V39.8133H111.595V48.4052ZM102.662 48.4052H94.0806V39.8133H102.662V48.4052ZM102.662 48.7573V57.3492H94.0806V48.7573H102.662ZM93.7289 57.3492H85.1478V48.7573H93.7289V57.3492ZM93.7289 57.7013V66.2932H85.1478V57.7013H93.7289ZM93.7289 66.7157V75.3076H85.1478V66.7157H93.7289ZM93.7289 75.6597V84.2516H85.1478V75.6597H93.7289ZM93.7289 84.6037V93.1955H85.1478V84.6037H93.7289ZM93.7289 93.6181V102.21H85.1478V93.6181H93.7289ZM93.7289 102.562V111.154H85.1478V102.562H93.7289ZM93.7289 111.506V120.098H85.1478V111.506H93.7289ZM93.7289 120.52V129.112H85.1478V120.52H93.7289ZM93.7289 129.464V138.056H85.1478V129.464H93.7289ZM93.7289 138.408V147H85.1478V138.408H93.7289ZM93.7289 147.423V156.015H85.1478V147.423H93.7289ZM94.0806 147.423H102.662V156.015H94.0806V147.423ZM102.662 156.367V164.959H94.0806V156.367H102.662ZM103.013 156.367H111.595V164.959H103.013V156.367ZM112.017 156.367H120.598V164.959H112.017V156.367ZM120.949 156.367H129.531V164.959H120.949V156.367ZM129.882 156.367H138.463V164.959H129.882V156.367ZM138.885 156.367H147.466V164.959H138.885V156.367ZM147.818 156.367H156.399V164.959H147.818V156.367ZM156.751 156.367H165.332V164.959H156.751V156.367ZM165.754 156.367H174.335V164.959H165.754V156.367ZM174.687 156.367H183.268V164.959H174.687V156.367ZM183.62 156.367H192.201V164.959H183.62V156.367ZM192.623 156.367H201.204V164.959H192.623V156.367ZM192.623 156.015V147.423H201.204V156.015H192.623ZM201.556 147.423H210.137V156.015H201.556V147.423ZM201.556 147V138.408H210.137V147H201.556ZM201.556 138.056V129.464H210.137V138.056H201.556ZM201.556 129.112V120.52H210.137V129.112H201.556ZM201.556 120.098V111.506H210.137V120.098H201.556ZM201.556 111.154V102.562H210.137V111.154H201.556ZM201.556 102.21V93.6181H210.137V102.21H201.556ZM201.556 93.1955V84.6037H210.137V93.1955H201.556ZM201.556 84.2516V75.6597H210.137V84.2516H201.556ZM201.556 75.3076V66.7157H210.137V75.3076H201.556ZM201.556 66.2932V57.7013H210.137V66.2932H201.556ZM201.556 57.3492V48.7573H210.137V57.3492H201.556ZM201.556 48.4052V39.8133H210.137V48.4052H201.556ZM201.556 39.3908V30.7989H210.137V39.3908H201.556ZM201.204 39.3908H192.623V30.7989H201.204V39.3908ZM192.201 39.3908H183.62V30.7989H192.201V39.3908ZM183.268 39.3908H174.687V30.7989H183.268V39.3908ZM174.335 39.3908H165.754V30.7989H174.335V39.3908ZM165.332 39.3908H156.751V30.7989H165.332V39.3908ZM156.399 39.3908H147.818V30.7989H156.399V39.3908ZM147.466 39.3908H138.885V30.7989H147.466V39.3908ZM138.463 39.3908H129.882V30.7989H138.463V39.3908ZM129.531 39.3908H120.949V30.7989H129.531V39.3908ZM120.598 39.3908H112.017V30.7989H120.598V39.3908ZM111.595 39.3908H103.013V30.7989H111.595V39.3908ZM102.662 39.3908H94.0806V30.7989H102.662V39.3908ZM93.7289 39.3908H85.1478V30.7989H93.7289V39.3908ZM93.7289 39.8133V48.4052H85.1478V39.8133H93.7289ZM84.7258 48.4052H76.1447V39.8133H84.7258V48.4052ZM84.7258 48.7573V57.3492H76.1447V48.7573H84.7258ZM84.7258 57.7013V66.2932H76.1447V57.7013H84.7258ZM84.7258 66.7157V75.3076H76.1447V66.7157H84.7258ZM84.7258 75.6597V84.2516H76.1447V75.6597H84.7258ZM84.7258 84.6037V93.1955H76.1447V84.6037H84.7258ZM84.7258 93.6181V102.21H76.1447V93.6181H84.7258ZM84.7258 102.562V111.154H76.1447V102.562H84.7258ZM84.7258 111.506V120.098H76.1447V111.506H84.7258ZM84.7258 120.52V129.112H76.1447V120.52H84.7258ZM84.7258 129.464V138.056H76.1447V129.464H84.7258ZM84.7258 138.408V147H76.1447V138.408H84.7258ZM84.7258 147.423V156.015H76.1447V147.423H84.7258ZM84.7258 156.367V164.959H76.1447V156.367H84.7258ZM85.1478 156.367H93.7289V164.959H85.1478V156.367ZM93.7289 165.311V173.903H85.1478V165.311H93.7289ZM94.0806 165.311H102.662V173.903H94.0806V165.311ZM103.013 165.311H111.595V173.903H103.013V165.311ZM112.017 165.311H120.598V173.903H112.017V165.311ZM120.949 165.311H129.531V173.903H120.949V165.311ZM129.882 165.311H138.463V173.903H129.882V165.311ZM138.885 165.311H147.466V173.903H138.885V165.311ZM147.818 165.311H156.399V173.903H147.818V165.311ZM156.751 165.311H165.332V173.903H156.751V165.311ZM165.754 165.311H174.335V173.903H165.754V165.311ZM174.687 165.311H183.268V173.903H174.687V165.311ZM183.62 165.311H192.201V173.903H183.62V165.311ZM192.623 165.311H201.204V173.903H192.623V165.311ZM201.556 165.311H210.137V173.903H201.556V165.311ZM201.556 164.959V156.367H210.137V164.959H201.556ZM210.489 156.367H219.07V164.959H210.489V156.367ZM210.489 156.015V147.423H219.07V156.015H210.489ZM210.489 147V138.408H219.07V147H210.489ZM210.489 138.056V129.464H219.07V138.056H210.489ZM210.489 129.112V120.52H219.07V129.112H210.489ZM210.489 120.098V111.506H219.07V120.098H210.489ZM210.489 111.154V102.562H219.07V111.154H210.489ZM210.489 102.21V93.6181H219.07V102.21H210.489ZM210.489 93.1955V84.6037H219.07V93.1955H210.489ZM210.489 84.2516V75.6597H219.07V84.2516H210.489ZM210.489 75.3076V66.7157H219.07V75.3076H210.489ZM210.489 66.2932V57.7013H219.07V66.2932H210.489ZM210.489 57.3492V48.7573H219.07V57.3492H210.489ZM210.489 48.4052V39.8133H219.07V48.4052H210.489ZM84.7258 30.7989V39.3908H76.1447V35.4966C76.1447 32.9021 78.2479 30.7989 80.8423 30.7989H84.7258ZM76.1447 165.311H84.7258V173.903H76.1447V165.311ZM210.489 173.903V165.311H219.07V173.903H210.489Z" fill="white"/>
</g>
<path d="M11.8056 90.1067C15.8178 90.1067 19.0702 86.8502 19.0702 82.833C19.0702 78.8159 15.8178 75.5593 11.8056 75.5593C7.79349 75.5593 4.54102 78.8159 4.54102 82.833C4.54102 86.8502 7.79349 90.1067 11.8056 90.1067Z" fill="url(#paint2_radial_719_19703)"/>
<path opacity="0.5" d="M7.60299 82.478C6.28676 81.667 5.9577 79.8169 6.86894 78.3723C7.75487 76.9277 9.55203 76.3955 10.8683 77.2065C12.1845 78.0175 12.5136 79.8676 11.6023 81.3122C10.6911 82.7821 8.89392 83.289 7.60299 82.478Z" fill="url(#paint3_radial_719_19703)"/>
<path d="M107.639 33.7779C110.701 33.7779 113.183 31.2923 113.183 28.2261C113.183 25.1599 110.701 22.6743 107.639 22.6743C104.576 22.6743 102.094 25.1599 102.094 28.2261C102.094 31.2923 104.576 33.7779 107.639 33.7779Z" fill="url(#paint4_radial_719_19703)"/>
<path opacity="0.5" d="M104.432 27.9553C103.428 27.3363 103.176 25.9241 103.872 24.8215C104.548 23.7189 105.92 23.3127 106.924 23.9317C107.929 24.5507 108.18 25.9628 107.485 27.0654C106.789 28.1874 105.418 28.5743 104.432 27.9553Z" fill="url(#paint5_radial_719_19703)"/>
<g filter="url(#filter0_f_719_19703)">
<ellipse cx="56.5219" cy="98.3681" rx="54.5219" ry="0.288954" fill="black" fill-opacity="0.37"/>
</g>
<g filter="url(#filter1_iii_719_19703)">
<path d="M81.1069 83.3683L76.71 87.5478C76.6164 87.6368 76.4922 87.6864 76.3631 87.6864H30.9638C29.9896 87.6864 29.2031 86.8981 29.2031 85.9215V19.0686C29.2031 18.092 29.9896 17.3037 30.9638 17.3037H83.2198C84.194 17.3037 84.9805 18.092 84.9805 19.0686V79.0847C84.9805 79.2136 84.931 79.3377 84.8422 79.4312L81.1069 83.3683Z" fill="#4392F4"/>
</g>
<g filter="url(#filter2_di_719_19703)">
<path d="M84.9795 79.3007L76.3604 78.3179C75.3025 78.3179 74.8763 79.2348 75.0017 80.3221L76.5914 87.6453L80.9685 83.4809L84.9795 79.3007Z" fill="#054599"/>
</g>
<g filter="url(#filter3_dii_719_19703)">
<rect x="36.4648" y="29.1445" width="40.8094" height="1.88413" rx="0.942066" fill="#F3F3F3"/>
</g>
<g filter="url(#filter4_dii_719_19703)">
<rect x="36.4648" y="40.3938" width="29.3582" height="1.88413" rx="0.942064" fill="#F3F3F3"/>
</g>
<g filter="url(#filter5_dii_719_19703)">
<rect x="36.4648" y="51.7219" width="16.6325" height="1.88413" rx="0.942067" fill="#F3F3F3"/>
</g>
<g filter="url(#filter6_di_719_19703)">
<path fill-rule="evenodd" clip-rule="evenodd" d="M58.8033 72.2475C65.0608 78.993 75.318 79.7845 82.4565 74.3439L92.1974 84.8443C92.8523 85.5502 93.9524 85.5932 94.6547 84.9403C95.357 84.2874 95.3954 83.1859 94.7406 82.48L84.9996 71.9796C90.9469 65.2548 90.916 54.9563 84.6584 48.2108C78.0008 41.0341 66.8158 40.597 59.676 47.2346C52.5363 53.8721 52.1456 65.0708 58.8033 72.2475ZM61.3472 69.8833C55.9992 64.1184 56.3131 55.1227 62.0483 49.7909C67.7834 44.4591 76.7681 44.8102 82.1161 50.5751C87.464 56.34 87.1501 65.3357 81.415 70.6675C75.6798 75.9993 66.6951 75.6482 61.3472 69.8833Z" fill="#FFC736"/>
</g>
<g filter="url(#filter7_ii_719_19703)">
<path d="M71.742 63.8761C71.4929 63.8791 71.2841 63.7901 71.1158 63.6091C70.9475 63.4281 70.8619 63.2129 70.8589 62.9634L70.737 52.7089C70.7338 52.4428 70.8143 52.2255 70.9785 52.0572C71.1424 51.8723 71.349 51.7783 71.5982 51.7753L72.0716 51.7697C72.3374 51.7665 72.5545 51.8554 72.7228 52.0364C72.8909 52.2008 72.9765 52.416 72.9797 52.6822L73.1016 62.9366C73.1046 63.1861 73.0158 63.4035 72.8352 63.5886C72.6713 63.7735 72.4647 63.8675 72.2155 63.8705L71.742 63.8761ZM72.0829 69.4866C71.5679 69.4928 71.134 69.3316 70.7812 69.0031C70.445 68.6743 70.2738 68.2522 70.2677 67.7365C70.2615 67.2209 70.4227 66.8031 70.7512 66.4831C71.0961 66.1463 71.5261 65.9748 72.0411 65.9687C72.5727 65.9623 73.0066 66.1235 73.3428 66.4522C73.6788 66.7643 73.8499 67.1781 73.856 67.6938C73.8621 68.2094 73.701 68.6355 73.3727 68.9722C73.0444 69.3088 72.6145 69.4803 72.0829 69.4866Z" fill="#F3F3F3"/>
</g>
<g filter="url(#filter8_i_719_19703)">
<path d="M106.36 81.4704C106.308 81.4572 106.252 81.447 106.218 81.4056C105.645 80.7087 107.437 72.8221 107.608 72.2285C108.487 69.1895 109.943 66.2319 112.284 64.0626C113.941 62.527 118.368 59.5225 120.665 61.2886C122.601 62.7791 120.787 66.5214 119.895 68.0863C118.295 70.869 115.937 73.1235 113.924 75.5912C112.722 77.0673 111.516 78.5718 110.314 80.0479C110.244 80.1391 109.743 80.8507 109.311 81.4023C108.934 81.8844 108.386 81.9849 107.793 81.8343C107.234 81.6926 106.58 81.5263 106.36 81.4704Z" fill="url(#paint6_linear_719_19703)"/>
</g>
<g filter="url(#filter9_i_719_19703)">
<path d="M108.972 83.8999C109.954 84.1116 110.829 83.2767 110.624 82.2928C109.497 76.8749 105.757 62.7394 97.8368 65.3146C90.6392 67.6803 106.107 81.6157 108.348 83.5903C108.528 83.7489 108.737 83.8494 108.972 83.8999Z" fill="url(#paint7_linear_719_19703)"/>
</g>
<path d="M99.9922 68.1328C99.9922 68.1328 109.254 80.2366 109.36 82.7973L99.9922 68.1328Z" fill="#77FFE4" fill-opacity="0.2"/>
<path d="M117.927 63.6763C117.927 63.6763 110.316 73.3971 109.489 77.7117L117.927 63.6763Z" fill="#77FFE4" fill-opacity="0.2"/>
<path d="M99.6169 82.1673C99.4757 80.7012 100.628 79.4324 102.101 79.4324H113.611C115.084 79.4324 116.236 80.7012 116.095 82.1673L114.78 95.822C114.657 97.1017 113.582 98.0785 112.296 98.0785H103.416C102.13 98.0785 101.055 97.1017 100.932 95.822L99.6169 82.1673Z" fill="url(#paint8_linear_719_19703)"/>
<g filter="url(#filter10_i_719_19703)">
<rect x="98.7402" y="79.4333" width="18.2327" height="4.49429" rx="1.24788" fill="url(#paint9_linear_719_19703)"/>
</g>
<defs>
<filter id="filter0_f_719_19703" x="0.476522" y="96.5556" width="112.09" height="3.62484" filterUnits="userSpaceOnUse" color-interpolation-filters="sRGB">
<feFlood flood-opacity="0" result="BackgroundImageFix"/>
<feBlend mode="normal" in="SourceGraphic" in2="BackgroundImageFix" result="shape"/>
<feGaussianBlur stdDeviation="0.761739" result="effect1_foregroundBlur_719_19703"/>
</filter>
<filter id="filter1_iii_719_19703" x="28.3825" y="16.8114" width="56.5979" height="71.7778" filterUnits="userSpaceOnUse" color-interpolation-filters="sRGB">
<feFlood flood-opacity="0" result="BackgroundImageFix"/>
<feBlend mode="normal" in="SourceGraphic" in2="BackgroundImageFix" result="shape"/>
<feColorMatrix in="SourceAlpha" type="matrix" values="0 0 0 0 0 0 0 0 0 0 0 0 0 0 0 0 0 0 127 0" result="hardAlpha"/>
<feOffset dy="-0.49235"/>
<feGaussianBlur stdDeviation="0.49235"/>
<feComposite in2="hardAlpha" operator="arithmetic" k2="-1" k3="1"/>
<feColorMatrix type="matrix" values="0 0 0 0 0.089132 0 0 0 0 0.328429 0 0 0 0 0.629167 0 0 0 1 0"/>
<feBlend mode="normal" in2="shape" result="effect1_innerShadow_719_19703"/>
<feColorMatrix in="SourceAlpha" type="matrix" values="0 0 0 0 0 0 0 0 0 0 0 0 0 0 0 0 0 0 127 0" result="hardAlpha"/>
<feOffset dy="0.902641"/>
<feGaussianBlur stdDeviation="0.451321"/>
<feComposite in2="hardAlpha" operator="arithmetic" k2="-1" k3="1"/>
<feColorMatrix type="matrix" values="0 0 0 0 0.641667 0 0 0 0 0.8495 0 0 0 0 1 0 0 0 1 0"/>
<feBlend mode="normal" in2="effect1_innerShadow_719_19703" result="effect2_innerShadow_719_19703"/>
<feColorMatrix in="SourceAlpha" type="matrix" values="0 0 0 0 0 0 0 0 0 0 0 0 0 0 0 0 0 0 127 0" result="hardAlpha"/>
<feOffset dx="-0.820583"/>
<feGaussianBlur stdDeviation="0.410291"/>
<feComposite in2="hardAlpha" operator="arithmetic" k2="-1" k3="1"/>
<feColorMatrix type="matrix" values="0 0 0 0 0 0 0 0 0 0 0 0 0 0 0 0 0 0 0.25 0"/>
<feBlend mode="normal" in2="effect2_innerShadow_719_19703" result="effect3_innerShadow_719_19703"/>
</filter>
<filter id="filter2_di_719_19703" x="74.6588" y="77.9027" width="10.554" height="10.1174" filterUnits="userSpaceOnUse" color-interpolation-filters="sRGB">
<feFlood flood-opacity="0" result="BackgroundImageFix"/>
<feColorMatrix in="SourceAlpha" type="matrix" values="0 0 0 0 0 0 0 0 0 0 0 0 0 0 0 0 0 0 127 0" result="hardAlpha"/>
<feOffset dy="0.140572"/>
<feGaussianBlur stdDeviation="0.117143"/>
<feColorMatrix type="matrix" values="0 0 0 0 0 0 0 0 0 0 0 0 0 0 0 0 0 0 0.25 0"/>
<feBlend mode="normal" in2="BackgroundImageFix" result="effect1_dropShadow_719_19703"/>
<feBlend mode="normal" in="SourceGraphic" in2="effect1_dropShadow_719_19703" result="shape"/>
<feColorMatrix in="SourceAlpha" type="matrix" values="0 0 0 0 0 0 0 0 0 0 0 0 0 0 0 0 0 0 127 0" result="hardAlpha"/>
<feOffset dx="-0.321671" dy="-0.415148"/>
<feGaussianBlur stdDeviation="0.207574"/>
<feComposite in2="hardAlpha" operator="arithmetic" k2="-1" k3="1"/>
<feColorMatrix type="matrix" values="0 0 0 0 0.0505208 0 0 0 0 0.161469 0 0 0 0 0.404167 0 0 0 1 0"/>
<feBlend mode="normal" in2="shape" result="effect2_innerShadow_719_19703"/>
</filter>
<filter id="filter3_dii_719_19703" x="36.2971" y="29.0982" width="41.1441" height="2.51747" filterUnits="userSpaceOnUse" color-interpolation-filters="sRGB">
<feFlood flood-opacity="0" result="BackgroundImageFix"/>
<feColorMatrix in="SourceAlpha" type="matrix" values="0 0 0 0 0 0 0 0 0 0 0 0 0 0 0 0 0 0 127 0" result="hardAlpha"/>
<feOffset dy="0.419344"/>
<feGaussianBlur stdDeviation="0.0838687"/>
<feColorMatrix type="matrix" values="0 0 0 0 0 0 0 0 0 0 0 0 0 0 0 0 0 0 0.25 0"/>
<feBlend mode="normal" in2="BackgroundImageFix" result="effect1_dropShadow_719_19703"/>
<feBlend mode="normal" in="SourceGraphic" in2="effect1_dropShadow_719_19703" result="shape"/>
<feColorMatrix in="SourceAlpha" type="matrix" values="0 0 0 0 0 0 0 0 0 0 0 0 0 0 0 0 0 0 127 0" result="hardAlpha"/>
<feOffset dy="0.503212"/>
<feComposite in2="hardAlpha" operator="arithmetic" k2="-1" k3="1"/>
<feColorMatrix type="matrix" values="0 0 0 0 1 0 0 0 0 1 0 0 0 0 1 0 0 0 1 0"/>
<feBlend mode="normal" in2="shape" result="effect2_innerShadow_719_19703"/>
<feColorMatrix in="SourceAlpha" type="matrix" values="0 0 0 0 0 0 0 0 0 0 0 0 0 0 0 0 0 0 127 0" result="hardAlpha"/>
<feOffset dx="-0.0231763" dy="-0.419344"/>
<feGaussianBlur stdDeviation="0.0231763"/>
<feComposite in2="hardAlpha" operator="arithmetic" k2="-1" k3="1"/>
<feColorMatrix type="matrix" values="0 0 0 0 0.833333 0 0 0 0 0.833333 0 0 0 0 0.833333 0 0 0 1 0"/>
<feBlend mode="normal" in2="effect2_innerShadow_719_19703" result="effect3_innerShadow_719_19703"/>
</filter>
<filter id="filter4_dii_719_19703" x="36.2971" y="40.3474" width="29.6929" height="2.51747" filterUnits="userSpaceOnUse" color-interpolation-filters="sRGB">
<feFlood flood-opacity="0" result="BackgroundImageFix"/>
<feColorMatrix in="SourceAlpha" type="matrix" values="0 0 0 0 0 0 0 0 0 0 0 0 0 0 0 0 0 0 127 0" result="hardAlpha"/>
<feOffset dy="0.419344"/>
<feGaussianBlur stdDeviation="0.0838687"/>
<feColorMatrix type="matrix" values="0 0 0 0 0 0 0 0 0 0 0 0 0 0 0 0 0 0 0.25 0"/>
<feBlend mode="normal" in2="BackgroundImageFix" result="effect1_dropShadow_719_19703"/>
<feBlend mode="normal" in="SourceGraphic" in2="effect1_dropShadow_719_19703" result="shape"/>
<feColorMatrix in="SourceAlpha" type="matrix" values="0 0 0 0 0 0 0 0 0 0 0 0 0 0 0 0 0 0 127 0" result="hardAlpha"/>
<feOffset dy="0.503212"/>
<feComposite in2="hardAlpha" operator="arithmetic" k2="-1" k3="1"/>
<feColorMatrix type="matrix" values="0 0 0 0 1 0 0 0 0 1 0 0 0 0 1 0 0 0 1 0"/>
<feBlend mode="normal" in2="shape" result="effect2_innerShadow_719_19703"/>
<feColorMatrix in="SourceAlpha" type="matrix" values="0 0 0 0 0 0 0 0 0 0 0 0 0 0 0 0 0 0 127 0" result="hardAlpha"/>
<feOffset dx="-0.0231763" dy="-0.419344"/>
<feGaussianBlur stdDeviation="0.0231763"/>
<feComposite in2="hardAlpha" operator="arithmetic" k2="-1" k3="1"/>
<feColorMatrix type="matrix" values="0 0 0 0 0.833333 0 0 0 0 0.833333 0 0 0 0 0.833333 0 0 0 1 0"/>
<feBlend mode="normal" in2="effect2_innerShadow_719_19703" result="effect3_innerShadow_719_19703"/>
</filter>
<filter id="filter5_dii_719_19703" x="36.2971" y="51.6756" width="16.9683" height="2.51747" filterUnits="userSpaceOnUse" color-interpolation-filters="sRGB">
<feFlood flood-opacity="0" result="BackgroundImageFix"/>
<feColorMatrix in="SourceAlpha" type="matrix" values="0 0 0 0 0 0 0 0 0 0 0 0 0 0 0 0 0 0 127 0" result="hardAlpha"/>
<feOffset dy="0.419344"/>
<feGaussianBlur stdDeviation="0.0838687"/>
<feColorMatrix type="matrix" values="0 0 0 0 0 0 0 0 0 0 0 0 0 0 0 0 0 0 0.25 0"/>
<feBlend mode="normal" in2="BackgroundImageFix" result="effect1_dropShadow_719_19703"/>
<feBlend mode="normal" in="SourceGraphic" in2="effect1_dropShadow_719_19703" result="shape"/>
<feColorMatrix in="SourceAlpha" type="matrix" values="0 0 0 0 0 0 0 0 0 0 0 0 0 0 0 0 0 0 127 0" result="hardAlpha"/>
<feOffset dy="0.503212"/>
<feComposite in2="hardAlpha" operator="arithmetic" k2="-1" k3="1"/>
<feColorMatrix type="matrix" values="0 0 0 0 1 0 0 0 0 1 0 0 0 0 1 0 0 0 1 0"/>
<feBlend mode="normal" in2="shape" result="effect2_innerShadow_719_19703"/>
<feColorMatrix in="SourceAlpha" type="matrix" values="0 0 0 0 0 0 0 0 0 0 0 0 0 0 0 0 0 0 127 0" result="hardAlpha"/>
<feOffset dx="-0.0231763" dy="-0.419344"/>
<feGaussianBlur stdDeviation="0.0231763"/>
<feComposite in2="hardAlpha" operator="arithmetic" k2="-1" k3="1"/>
<feColorMatrix type="matrix" values="0 0 0 0 0.833333 0 0 0 0 0.833333 0 0 0 0 0.833333 0 0 0 1 0"/>
<feBlend mode="normal" in2="effect2_innerShadow_719_19703" result="effect3_innerShadow_719_19703"/>
</filter>
<filter id="filter6_di_719_19703" x="49.636" y="42.5288" width="49.9897" height="53.1845" filterUnits="userSpaceOnUse" color-interpolation-filters="sRGB">
<feFlood flood-opacity="0" result="BackgroundImageFix"/>
<feColorMatrix in="SourceAlpha" type="matrix" values="0 0 0 0 0 0 0 0 0 0 0 0 0 0 0 0 0 0 127 0" result="hardAlpha"/>
<feOffset dy="5.89158"/>
<feGaussianBlur stdDeviation="2.20934"/>
<feColorMatrix type="matrix" values="0 0 0 0 0 0 0 0 0 0 0 0 0 0 0 0 0 0 0.11 0"/>
<feBlend mode="normal" in2="BackgroundImageFix" result="effect1_dropShadow_719_19703"/>
<feBlend mode="normal" in="SourceGraphic" in2="effect1_dropShadow_719_19703" result="shape"/>
<feColorMatrix in="SourceAlpha" type="matrix" values="0 0 0 0 0 0 0 0 0 0 0 0 0 0 0 0 0 0 127 0" result="hardAlpha"/>
<feOffset dy="1.4729"/>
<feGaussianBlur stdDeviation="1.10467"/>
<feComposite in2="hardAlpha" operator="arithmetic" k2="-1" k3="1"/>
<feColorMatrix type="matrix" values="0 0 0 0 0.841667 0 0 0 0 0.561793 0 0 0 0 0.248993 0 0 0 1 0"/>
<feBlend mode="normal" in2="shape" result="effect2_innerShadow_719_19703"/>
</filter>
<filter id="filter7_ii_719_19703" x="70.248" y="51.7304" width="3.60745" height="17.8161" filterUnits="userSpaceOnUse" color-interpolation-filters="sRGB">
<feFlood flood-opacity="0" result="BackgroundImageFix"/>
<feBlend mode="normal" in="SourceGraphic" in2="BackgroundImageFix" result="shape"/>
<feColorMatrix in="SourceAlpha" type="matrix" values="0 0 0 0 0 0 0 0 0 0 0 0 0 0 0 0 0 0 127 0" result="hardAlpha"/>
<feOffset dy="0.328174"/>
<feGaussianBlur stdDeviation="0.029834"/>
<feComposite in2="hardAlpha" operator="arithmetic" k2="-1" k3="1"/>
<feColorMatrix type="matrix" values="0 0 0 0 1 0 0 0 0 1 0 0 0 0 1 0 0 0 1 0"/>
<feBlend mode="normal" in2="shape" result="effect1_innerShadow_719_19703"/>
<feColorMatrix in="SourceAlpha" type="matrix" values="0 0 0 0 0 0 0 0 0 0 0 0 0 0 0 0 0 0 127 0" result="hardAlpha"/>
<feOffset dx="-0.0195565" dy="-0.30752"/>
<feGaussianBlur stdDeviation="0.0195565"/>
<feComposite in2="hardAlpha" operator="arithmetic" k2="-1" k3="1"/>
<feColorMatrix type="matrix" values="0 0 0 0 0.833333 0 0 0 0 0.833333 0 0 0 0 0.833333 0 0 0 1 0"/>
<feBlend mode="normal" in2="effect1_innerShadow_719_19703" result="effect2_innerShadow_719_19703"/>
</filter>
<filter id="filter8_i_719_19703" x="106.105" y="60.2916" width="16.6166" height="21.6074" filterUnits="userSpaceOnUse" color-interpolation-filters="sRGB">
<feFlood flood-opacity="0" result="BackgroundImageFix"/>
<feBlend mode="normal" in="SourceGraphic" in2="BackgroundImageFix" result="shape"/>
<feColorMatrix in="SourceAlpha" type="matrix" values="0 0 0 0 0 0 0 0 0 0 0 0 0 0 0 0 0 0 127 0" result="hardAlpha"/>
<feOffset dx="1.19671" dy="-0.457472"/>
<feGaussianBlur stdDeviation="1.55985"/>
<feComposite in2="hardAlpha" operator="arithmetic" k2="-1" k3="1"/>
<feColorMatrix type="matrix" values="0 0 0 0 0.113056 0 0 0 0 0.616667 0 0 0 0 0.58645 0 0 0 1 0"/>
<feBlend mode="normal" in2="shape" result="effect1_innerShadow_719_19703"/>
</filter>
<filter id="filter9_i_719_19703" x="95.9414" y="64.5467" width="15.9096" height="19.3864" filterUnits="userSpaceOnUse" color-interpolation-filters="sRGB">
<feFlood flood-opacity="0" result="BackgroundImageFix"/>
<feBlend mode="normal" in="SourceGraphic" in2="BackgroundImageFix" result="shape"/>
<feColorMatrix in="SourceAlpha" type="matrix" values="0 0 0 0 0 0 0 0 0 0 0 0 0 0 0 0 0 0 127 0" result="hardAlpha"/>
<feOffset dx="1.19671" dy="-0.457472"/>
<feGaussianBlur stdDeviation="1.55985"/>
<feComposite in2="hardAlpha" operator="arithmetic" k2="-1" k3="1"/>
<feColorMatrix type="matrix" values="0 0 0 0 0.0996528 0 0 0 0 0.683333 0 0 0 0 0.555806 0 0 0 1 0"/>
<feBlend mode="normal" in2="shape" result="effect1_innerShadow_719_19703"/>
</filter>
<filter id="filter10_i_719_19703" x="98.7402" y="79.059" width="18.7316" height="4.86875" filterUnits="userSpaceOnUse" color-interpolation-filters="sRGB">
<feFlood flood-opacity="0" result="BackgroundImageFix"/>
<feBlend mode="normal" in="SourceGraphic" in2="BackgroundImageFix" result="shape"/>
<feColorMatrix in="SourceAlpha" type="matrix" values="0 0 0 0 0 0 0 0 0 0 0 0 0 0 0 0 0 0 127 0" result="hardAlpha"/>
<feOffset dx="0.499151" dy="-0.374363"/>
<feGaussianBlur stdDeviation="0.436757"/>
<feComposite in2="hardAlpha" operator="arithmetic" k2="-1" k3="1"/>
<feColorMatrix type="matrix" values="0 0 0 0 0.833333 0 0 0 0 0.604343 0 0 0 0 0.0555555 0 0 0 1 0"/>
<feBlend mode="normal" in2="shape" result="effect1_innerShadow_719_19703"/>
</filter>
<linearGradient id="paint0_linear_719_19703" x1="60.8377" y1="0" x2="60.8377" y2="113.943" gradientUnits="userSpaceOnUse">
<stop stop-color="#B5EFFF"/>
<stop offset="1" stop-color="#E7F8FE"/>
</linearGradient>
<linearGradient id="paint1_linear_719_19703" x1="60.1176" y1="0" x2="60.1176" y2="113.277" gradientUnits="userSpaceOnUse">
<stop stop-color="#B5EFFF"/>
<stop offset="1" stop-color="#EDFBFF"/>
</linearGradient>
<radialGradient id="paint2_radial_719_19703" cx="0" cy="0" r="1" gradientUnits="userSpaceOnUse" gradientTransform="translate(8.3501 79.8959) rotate(-15.1954) scale(13.8547 13.8697)">
<stop stop-color="#FFF1CF"/>
<stop offset="0.1875" stop-color="#FFE4A2"/>
<stop offset="0.317708" stop-color="#FFD364"/>
<stop offset="0.489583" stop-color="#FFD364"/>
<stop offset="0.651042" stop-color="#FFC73A"/>
<stop offset="0.947917" stop-color="#D09500"/>
</radialGradient>
<radialGradient id="paint3_radial_719_19703" cx="0" cy="0" r="1" gradientUnits="userSpaceOnUse" gradientTransform="translate(9.21686 79.8634) rotate(121.857) scale(3.03674 2.76404)">
<stop stop-color="white"/>
<stop offset="0.6944" stop-color="white" stop-opacity="0"/>
</radialGradient>
<radialGradient id="paint4_radial_719_19703" cx="0" cy="0" r="1" gradientUnits="userSpaceOnUse" gradientTransform="translate(105.001 25.9842) rotate(-15.1953) scale(10.5748 10.5863)">
<stop stop-color="#E6C6FF"/>
<stop offset="0.1875" stop-color="#C07DF5"/>
<stop offset="0.317708" stop-color="#BE6FFC"/>
<stop offset="0.489583" stop-color="#B56AF0"/>
<stop offset="0.651042" stop-color="#A745F4"/>
<stop offset="0.947917" stop-color="#9F3DED"/>
</radialGradient>
<radialGradient id="paint5_radial_719_19703" cx="0" cy="0" r="1" gradientUnits="userSpaceOnUse" gradientTransform="translate(105.664 25.9596) rotate(121.857) scale(2.31785 2.10971)">
<stop stop-color="white"/>
<stop offset="0.6944" stop-color="white" stop-opacity="0"/>
</radialGradient>
<linearGradient id="paint6_linear_719_19703" x1="123.759" y1="61.081" x2="106.568" y2="76.5007" gradientUnits="userSpaceOnUse">
<stop stop-color="#BAFFF1" stop-opacity="0.26"/>
<stop offset="0.682292" stop-color="#4DC7AE"/>
<stop offset="0.96875" stop-color="#06896F"/>
</linearGradient>
<linearGradient id="paint7_linear_719_19703" x1="116.12" y1="67.0731" x2="105.657" y2="84.6716" gradientUnits="userSpaceOnUse">
<stop stop-color="#B7FDEF"/>
<stop offset="0.682292" stop-color="#09B794"/>
<stop offset="0.96875" stop-color="#7EE0CC"/>
</linearGradient>
<linearGradient id="paint8_linear_719_19703" x1="116.358" y1="91.7074" x2="100.567" y2="91.7074" gradientUnits="userSpaceOnUse">
<stop offset="0.0989583" stop-color="#FFEEC5"/>
<stop offset="0.606776" stop-color="#FACD63"/>
<stop offset="0.838542" stop-color="#EAAF23"/>
<stop offset="0.984375" stop-color="#EDB52F"/>
</linearGradient>
<linearGradient id="paint9_linear_719_19703" x1="116.973" y1="82.392" x2="100.041" y2="82.392" gradientUnits="userSpaceOnUse">
<stop offset="0.0989583" stop-color="#FFEEC5"/>
<stop offset="0.606776" stop-color="#FCBD27"/>
<stop offset="0.984375" stop-color="#EFB222"/>
</linearGradient>
</defs>
</svg>
