<svg width="60" height="59" viewBox="0 0 60 59" fill="none" xmlns="http://www.w3.org/2000/svg">
<mask id="mask0_2634_41609" style="mask-type:alpha" maskUnits="userSpaceOnUse" x="1" y="0" width="59" height="59">
<path d="M30.5017 58.9957C46.7929 58.9957 59.9996 45.789 59.9996 29.4978C59.9996 13.2066 46.7929 0 30.5017 0C14.2105 0 1.00391 13.2066 1.00391 29.4978C1.00391 45.789 14.2105 58.9957 30.5017 58.9957Z" fill="url(#paint0_linear_2634_41609)"/>
</mask>
<g mask="url(#mask0_2634_41609)">
<path d="M30.3174 58.651C46.7106 58.651 60 45.5215 60 29.3255C60 13.1295 46.7106 0 30.3174 0C13.9241 0 0.634766 13.1295 0.634766 29.3255C0.634766 45.5215 13.9241 58.651 30.3174 58.651Z" fill="url(#paint1_linear_2634_41609)"/>
<path d="M41.993 15.7637C39.928 15.7637 38.2539 17.4377 38.2539 19.5028V90.259H112.749V15.7637H41.993ZM112.53 20.3946H108.082V15.946H112.53V20.3946ZM75.5927 48.2528V43.8043H80.0413V48.2528H75.5927ZM80.0413 48.4716V52.9202H75.5927V48.4716H80.0413ZM75.4104 48.2528H70.9619V43.8043H75.4104V48.2528ZM75.4104 48.4716V52.9202H70.9619V48.4716H75.4104ZM70.7431 52.9202H66.2945V48.4716H70.7431V52.9202ZM70.7431 53.1025V57.5511H66.2945V53.1025H70.7431ZM70.9619 53.1025H75.4104V57.5511H70.9619V53.1025ZM75.4104 57.7334V62.182H70.9619V57.7334H75.4104ZM75.5927 57.7334H80.0413V62.182H75.5927V57.7334ZM75.5927 57.5511V53.1025H80.0413V57.5511H75.5927ZM80.2236 53.1025H84.6722V57.5511H80.2236V53.1025ZM80.2236 52.9202V48.4716H84.6722V52.9202H80.2236ZM80.2236 48.2528V43.8043H84.6722V48.2528H80.2236ZM80.2236 43.6219V39.1734H84.6722V43.6219H80.2236ZM80.0413 43.6219H75.5927V39.1734H80.0413V43.6219ZM75.4104 43.6219H70.9619V39.1734H75.4104V43.6219ZM70.7431 43.6219H66.2945V39.1734H70.7431V43.6219ZM70.7431 43.8043V48.2528H66.2945V43.8043H70.7431ZM66.1122 48.2528H61.6636V43.8043H66.1122V48.2528ZM66.1122 48.4716V52.9202H61.6636V48.4716H66.1122ZM66.1122 53.1025V57.5511H61.6636V53.1025H66.1122ZM66.1122 57.7334V62.182H61.6636V57.7334H66.1122ZM66.2945 57.7334H70.7431V62.182H66.2945V57.7334ZM70.7431 62.4008V66.8493H66.2945V62.4008H70.7431ZM70.9619 62.4008H75.4104V66.8493H70.9619V62.4008ZM75.5927 62.4008H80.0413V66.8493H75.5927V62.4008ZM80.2236 62.4008H84.6722V66.8493H80.2236V62.4008ZM80.2236 62.182V57.7334H84.6722V62.182H80.2236ZM84.891 57.7334H89.3396V62.182H84.891V57.7334ZM84.891 57.5511V53.1025H89.3396V57.5511H84.891ZM84.891 52.9202V48.4716H89.3396V52.9202H84.891ZM84.891 48.2528V43.8043H89.3396V48.2528H84.891ZM84.891 43.6219V39.1734H89.3396V43.6219H84.891ZM84.891 38.9911V34.5425H89.3396V38.9911H84.891ZM84.6722 38.9911H80.2236V34.5425H84.6722V38.9911ZM80.0413 38.9911H75.5927V34.5425H80.0413V38.9911ZM75.4104 38.9911H70.9619V34.5425H75.4104V38.9911ZM70.7431 38.9911H66.2945V34.5425H70.7431V38.9911ZM66.1122 38.9911H61.6636V34.5425H66.1122V38.9911ZM66.1122 39.1734V43.6219H61.6636V39.1734H66.1122ZM61.4813 43.6219H57.0327V39.1734H61.4813V43.6219ZM61.4813 43.8043V48.2528H57.0327V43.8043H61.4813ZM61.4813 48.4716V52.9202H57.0327V48.4716H61.4813ZM61.4813 53.1025V57.5511H57.0327V53.1025H61.4813ZM61.4813 57.7334V62.182H57.0327V57.7334H61.4813ZM61.4813 62.4008V66.8493H57.0327V62.4008H61.4813ZM61.6636 62.4008H66.1122V66.8493H61.6636V62.4008ZM66.1122 67.0317V71.4802H61.6636V67.0317H66.1122ZM66.2945 67.0317H70.7431V71.4802H66.2945V67.0317ZM70.9619 67.0317H75.4104V71.4802H70.9619V67.0317ZM75.5927 67.0317H80.0413V71.4802H75.5927V67.0317ZM80.2236 67.0317H84.6722V71.4802H80.2236V67.0317ZM84.891 67.0317H89.3396V71.4802H84.891V67.0317ZM84.891 66.8493V62.4008H89.3396V66.8493H84.891ZM89.5219 62.4008H93.9705V66.8493H89.5219V62.4008ZM89.5219 62.182V57.7334H93.9705V62.182H89.5219ZM89.5219 57.5511V53.1025H93.9705V57.5511H89.5219ZM89.5219 52.9202V48.4716H93.9705V52.9202H89.5219ZM89.5219 48.2528V43.8043H93.9705V48.2528H89.5219ZM89.5219 43.6219V39.1734H93.9705V43.6219H89.5219ZM89.5219 38.9911V34.5425H93.9705V38.9911H89.5219ZM89.5219 34.3237V29.8751H93.9705V34.3237H89.5219ZM89.3396 34.3237H84.891V29.8751H89.3396V34.3237ZM84.6722 34.3237H80.2236V29.8751H84.6722V34.3237ZM80.0413 34.3237H75.5927V29.8751H80.0413V34.3237ZM75.4104 34.3237H70.9619V29.8751H75.4104V34.3237ZM70.7431 34.3237H66.2945V29.8751H70.7431V34.3237ZM66.1122 34.3237H61.6636V29.8751H66.1122V34.3237ZM61.4813 34.3237H57.0327V29.8751H61.4813V34.3237ZM61.4813 34.5425V38.9911H57.0327V34.5425H61.4813ZM56.8139 38.9911H52.3654V34.5425H56.8139V38.9911ZM56.8139 39.1734V43.6219H52.3654V39.1734H56.8139ZM56.8139 43.8043V48.2528H52.3654V43.8043H56.8139ZM56.8139 48.4716V52.9202H52.3654V48.4716H56.8139ZM56.8139 53.1025V57.5511H52.3654V53.1025H56.8139ZM56.8139 57.7334V62.182H52.3654V57.7334H56.8139ZM56.8139 62.4008V66.8493H52.3654V62.4008H56.8139ZM56.8139 67.0317V71.4802H52.3654V67.0317H56.8139ZM57.0327 67.0317H61.4813V71.4802H57.0327V67.0317ZM61.4813 71.6625V76.1111H57.0327V71.6625H61.4813ZM61.6636 71.6625H66.1122V76.1111H61.6636V71.6625ZM66.2945 71.6625H70.7431V76.1111H66.2945V71.6625ZM70.9619 71.6625H75.4104V76.1111H70.9619V71.6625ZM75.5927 71.6625H80.0413V76.1111H75.5927V71.6625ZM80.2236 71.6625H84.6722V76.1111H80.2236V71.6625ZM84.891 71.6625H89.3396V76.1111H84.891V71.6625ZM89.5219 71.6625H93.9705V76.1111H89.5219V71.6625ZM89.5219 71.4802V67.0317H93.9705V71.4802H89.5219ZM94.1528 67.0317H98.6013V71.4802H94.1528V67.0317ZM94.1528 66.8493V62.4008H98.6013V66.8493H94.1528ZM94.1528 62.182V57.7334H98.6013V62.182H94.1528ZM94.1528 57.5511V53.1025H98.6013V57.5511H94.1528ZM94.1528 52.9202V48.4716H98.6013V52.9202H94.1528ZM94.1528 48.2528V43.8043H98.6013V48.2528H94.1528ZM94.1528 43.6219V39.1734H98.6013V43.6219H94.1528ZM94.1528 38.9911V34.5425H98.6013V38.9911H94.1528ZM94.1528 34.3237V29.8751H98.6013V34.3237H94.1528ZM94.1528 29.6928V25.2442H98.6013V29.6928H94.1528ZM93.9705 29.6928H89.5219V25.2442H93.9705V29.6928ZM89.3396 29.6928H84.891V25.2442H89.3396V29.6928ZM84.6722 29.6928H80.2236V25.2442H84.6722V29.6928ZM80.0413 29.6928H75.5927V25.2442H80.0413V29.6928ZM75.4104 29.6928H70.9619V25.2442H75.4104V29.6928ZM70.7431 29.6928H66.2945V25.2442H70.7431V29.6928ZM66.1122 29.6928H61.6636V25.2442H66.1122V29.6928ZM61.4813 29.6928H57.0327V25.2442H61.4813V29.6928ZM56.8139 29.6928H52.3654V25.2442H56.8139V29.6928ZM56.8139 29.8751V34.3237H52.3654V29.8751H56.8139ZM52.183 34.3237H47.7345V29.8751H52.183V34.3237ZM52.183 34.5425V38.9911H47.7345V34.5425H52.183ZM52.183 39.1734V43.6219H47.7345V39.1734H52.183ZM52.183 43.8043V48.2528H47.7345V43.8043H52.183ZM52.183 48.4716V52.9202H47.7345V48.4716H52.183ZM52.183 53.1025V57.5511H47.7345V53.1025H52.183ZM52.183 57.7334V62.182H47.7345V57.7334H52.183ZM52.183 62.4008V66.8493H47.7345V62.4008H52.183ZM52.183 67.0317V71.4802H47.7345V67.0317H52.183ZM52.183 71.6625V76.1111H47.7345V71.6625H52.183ZM52.3654 71.6625H56.8139V76.1111H52.3654V71.6625ZM56.8139 76.3299V80.7785H52.3654V76.3299H56.8139ZM57.0327 76.3299H61.4813V80.7785H57.0327V76.3299ZM61.6636 76.3299H66.1122V80.7785H61.6636V76.3299ZM66.2945 76.3299H70.7431V80.7785H66.2945V76.3299ZM70.9619 76.3299H75.4104V80.7785H70.9619V76.3299ZM75.5927 76.3299H80.0413V80.7785H75.5927V76.3299ZM80.2236 76.3299H84.6722V80.7785H80.2236V76.3299ZM84.891 76.3299H89.3396V80.7785H84.891V76.3299ZM89.5219 76.3299H93.9705V80.7785H89.5219V76.3299ZM94.1528 76.3299H98.6013V80.7785H94.1528V76.3299ZM94.1528 76.1111V71.6625H98.6013V76.1111H94.1528ZM98.8201 71.6625H103.269V76.1111H98.8201V71.6625ZM98.8201 71.4802V67.0317H103.269V71.4802H98.8201ZM98.8201 66.8493V62.4008H103.269V66.8493H98.8201ZM98.8201 62.182V57.7334H103.269V62.182H98.8201ZM98.8201 57.5511V53.1025H103.269V57.5511H98.8201ZM98.8201 52.9202V48.4716H103.269V52.9202H98.8201ZM98.8201 48.2528V43.8043H103.269V48.2528H98.8201ZM98.8201 43.6219V39.1734H103.269V43.6219H98.8201ZM98.8201 38.9911V34.5425H103.269V38.9911H98.8201ZM98.8201 34.3237V29.8751H103.269V34.3237H98.8201ZM98.8201 29.6928V25.2442H103.269V29.6928H98.8201ZM98.8201 25.0619V20.6133H103.269V25.0619H98.8201ZM98.6013 25.0619H94.1528V20.6133H98.6013V25.0619ZM93.9705 25.0619H89.5219V20.6133H93.9705V25.0619ZM89.3396 25.0619H84.891V20.6133H89.3396V25.0619ZM84.6722 25.0619H80.2236V20.6133H84.6722V25.0619ZM80.0413 25.0619H75.5927V20.6133H80.0413V25.0619ZM75.4104 25.0619H70.9619V20.6133H75.4104V25.0619ZM70.7431 25.0619H66.2945V20.6133H70.7431V25.0619ZM66.1122 25.0619H61.6636V20.6133H66.1122V25.0619ZM61.4813 25.0619H57.0327V20.6133H61.4813V25.0619ZM56.8139 25.0619H52.3654V20.6133H56.8139V25.0619ZM52.183 25.0619H47.7345V20.6133H52.183V25.0619ZM52.183 25.2442V29.6928H47.7345V25.2442H52.183ZM47.5522 29.6928H43.1036V25.2442H47.5522V29.6928ZM47.5522 29.8751V34.3237H43.1036V29.8751H47.5522ZM47.5522 34.5425V38.9911H43.1036V34.5425H47.5522ZM47.5522 39.1734V43.6219H43.1036V39.1734H47.5522ZM47.5522 43.8043V48.2528H43.1036V43.8043H47.5522ZM47.5522 48.4716V52.9202H43.1036V48.4716H47.5522ZM47.5522 53.1025V57.5511H43.1036V53.1025H47.5522ZM47.5522 57.7334V62.182H43.1036V57.7334H47.5522ZM47.5522 62.4008V66.8493H43.1036V62.4008H47.5522ZM47.5522 67.0317V71.4802H43.1036V67.0317H47.5522ZM47.5522 71.6625V76.1111H43.1036V71.6625H47.5522ZM47.5522 76.3299V80.7785H43.1036V76.3299H47.5522ZM47.7345 76.3299H52.183V80.7785H47.7345V76.3299ZM52.183 80.9608V85.4094H47.7345V80.9608H52.183ZM52.3654 80.9608H56.8139V85.4094H52.3654V80.9608ZM57.0327 80.9608H61.4813V85.4094H57.0327V80.9608ZM61.6636 80.9608H66.1122V85.4094H61.6636V80.9608ZM66.2945 80.9608H70.7431V85.4094H66.2945V80.9608ZM70.9619 80.9608H75.4104V85.4094H70.9619V80.9608ZM75.5927 80.9608H80.0413V85.4094H75.5927V80.9608ZM80.2236 80.9608H84.6722V85.4094H80.2236V80.9608ZM84.891 80.9608H89.3396V85.4094H84.891V80.9608ZM89.5219 80.9608H93.9705V85.4094H89.5219V80.9608ZM94.1528 80.9608H98.6013V85.4094H94.1528V80.9608ZM98.8201 80.9608H103.269V85.4094H98.8201V80.9608ZM98.8201 80.7785V76.3299H103.269V80.7785H98.8201ZM103.451 76.3299H107.9V80.7785H103.451V76.3299ZM103.451 76.1111V71.6625H107.9V76.1111H103.451ZM103.451 71.4802V67.0317H107.9V71.4802H103.451ZM103.451 66.8493V62.4008H107.9V66.8493H103.451ZM103.451 62.182V57.7334H107.9V62.182H103.451ZM103.451 57.5511V53.1025H107.9V57.5511H103.451ZM103.451 52.9202V48.4716H107.9V52.9202H103.451ZM103.451 48.2528V43.8043H107.9V48.2528H103.451ZM103.451 43.6219V39.1734H107.9V43.6219H103.451ZM103.451 38.9911V34.5425H107.9V38.9911H103.451ZM103.451 34.3237V29.8751H107.9V34.3237H103.451ZM103.451 29.6928V25.2442H107.9V29.6928H103.451ZM103.451 25.0619V20.6133H107.9V25.0619H103.451ZM103.451 20.3946V15.946H107.9V20.3946H103.451ZM103.269 20.3946H98.8201V15.946H103.269V20.3946ZM98.6013 20.3946H94.1528V15.946H98.6013V20.3946ZM93.9705 20.3946H89.5219V15.946H93.9705V20.3946ZM89.3396 20.3946H84.891V15.946H89.3396V20.3946ZM84.6722 20.3946H80.2236V15.946H84.6722V20.3946ZM80.0413 20.3946H75.5927V15.946H80.0413V20.3946ZM75.4104 20.3946H70.9619V15.946H75.4104V20.3946ZM70.7431 20.3946H66.2945V15.946H70.7431V20.3946ZM66.1122 20.3946H61.6636V15.946H66.1122V20.3946ZM61.4813 20.3946H57.0327V15.946H61.4813V20.3946ZM56.8139 20.3946H52.3654V15.946H56.8139V20.3946ZM52.183 20.3946H47.7345V15.946H52.183V20.3946ZM47.5522 20.3946H43.1036V15.946H47.5522V20.3946ZM47.5522 20.6133V25.0619H43.1036V20.6133H47.5522ZM42.8848 25.0619H38.4362V20.6133H42.8848V25.0619ZM42.8848 25.2442V29.6928H38.4362V25.2442H42.8848ZM42.8848 29.8751V34.3237H38.4362V29.8751H42.8848ZM42.8848 34.5425V38.9911H38.4362V34.5425H42.8848ZM42.8848 39.1734V43.6219H38.4362V39.1734H42.8848ZM42.8848 43.8043V48.2528H38.4362V43.8043H42.8848ZM42.8848 48.4716V52.9202H38.4362V48.4716H42.8848ZM42.8848 53.1025V57.5511H38.4362V53.1025H42.8848ZM42.8848 57.7334V62.182H38.4362V57.7334H42.8848ZM42.8848 62.4008V66.8493H38.4362V62.4008H42.8848ZM42.8848 67.0317V71.4802H38.4362V67.0317H42.8848ZM42.8848 71.6625V76.1111H38.4362V71.6625H42.8848ZM42.8848 76.3299V80.7785H38.4362V76.3299H42.8848ZM42.8848 80.9608V85.4094H38.4362V80.9608H42.8848ZM43.1036 80.9608H47.5522V85.4094H43.1036V80.9608ZM47.5522 85.5917V90.0403H43.1036V85.5917H47.5522ZM47.7345 85.5917H52.183V90.0403H47.7345V85.5917ZM52.3654 85.5917H56.8139V90.0403H52.3654V85.5917ZM57.0327 85.5917H61.4813V90.0403H57.0327V85.5917ZM61.6636 85.5917H66.1122V90.0403H61.6636V85.5917ZM66.2945 85.5917H70.7431V90.0403H66.2945V85.5917ZM70.9619 85.5917H75.4104V90.0403H70.9619V85.5917ZM75.5927 85.5917H80.0413V90.0403H75.5927V85.5917ZM80.2236 85.5917H84.6722V90.0403H80.2236V85.5917ZM84.891 85.5917H89.3396V90.0403H84.891V85.5917ZM89.5219 85.5917H93.9705V90.0403H89.5219V85.5917ZM94.1528 85.5917H98.6013V90.0403H94.1528V85.5917ZM98.8201 85.5917H103.269V90.0403H98.8201V85.5917ZM103.451 85.5917H107.9V90.0403H103.451V85.5917ZM103.451 85.4094V80.9608H107.9V85.4094H103.451ZM108.082 80.9608H112.53V85.4094H108.082V80.9608ZM108.082 80.7785V76.3299H112.53V80.7785H108.082ZM108.082 76.1111V71.6625H112.53V76.1111H108.082ZM108.082 71.4802V67.0317H112.53V71.4802H108.082ZM108.082 66.8493V62.4008H112.53V66.8493H108.082ZM108.082 62.182V57.7334H112.53V62.182H108.082ZM108.082 57.5511V53.1025H112.53V57.5511H108.082ZM108.082 52.9202V48.4716H112.53V52.9202H108.082ZM108.082 48.2528V43.8043H112.53V48.2528H108.082ZM108.082 43.6219V39.1734H112.53V43.6219H108.082ZM108.082 38.9911V34.5425H112.53V38.9911H108.082ZM108.082 34.3237V29.8751H112.53V34.3237H108.082ZM108.082 29.6928V25.2442H112.53V29.6928H108.082ZM108.082 25.0619V20.6133H112.53V25.0619H108.082ZM42.8848 15.946V20.3946H38.4362V19.6851C38.4362 17.6201 40.1103 15.946 42.1754 15.946H42.8848ZM38.4362 85.5917H42.8848V90.0403H38.4362V85.5917ZM108.082 90.0403V85.5917H112.53V90.0403H108.082Z" fill="white"/>
<rect x="0.333984" y="39.999" width="60.3342" height="20.1114" fill="url(#paint2_linear_2634_41609)"/>
</g>
<path d="M3.76607 41.9472C5.84602 41.9472 7.53214 40.2611 7.53214 38.1811C7.53214 36.1012 5.84602 34.415 3.76607 34.415C1.68613 34.415 0 36.1012 0 38.1811C0 40.2611 1.68613 41.9472 3.76607 41.9472Z" fill="url(#paint3_radial_2634_41609)"/>
<path opacity="0.5" d="M1.5872 37.9975C0.904845 37.5776 0.734256 36.6197 1.20666 35.8717C1.66593 35.1237 2.59761 34.8482 3.27996 35.2681C3.96232 35.688 4.13291 36.6459 3.66051 37.3939C3.18811 38.155 2.25643 38.4174 1.5872 37.9975Z" fill="url(#paint4_radial_2634_41609)"/>
<path d="M54.437 16.6367C56.0246 16.6367 57.3115 15.3498 57.3115 13.7622C57.3115 12.1747 56.0246 10.8877 54.437 10.8877C52.8495 10.8877 51.5625 12.1747 51.5625 13.7622C51.5625 15.3498 52.8495 16.6367 54.437 16.6367Z" fill="url(#paint5_radial_2634_41609)"/>
<g filter="url(#filter0_i_2634_41609)">
<path d="M51.0983 37.8437C51.0647 37.8352 51.0282 37.8286 51.0093 37.7996C50.7536 37.4066 51.6074 33.6537 51.6896 33.369C52.1154 31.8986 52.8206 30.4677 53.9548 29.4181C54.7574 28.6752 56.9019 27.2215 58.0148 28.076C58.9525 28.7971 58.0739 30.6078 57.6416 31.3649C56.8665 32.7112 55.7244 33.802 54.7491 34.9959C54.1671 35.7101 53.5826 36.438 53.0006 37.1521C52.9715 37.19 52.7885 37.4489 52.6051 37.6903C52.3663 38.0046 52.0187 38.0772 51.6361 37.9802C51.4161 37.9244 51.1948 37.8682 51.0983 37.8437Z" fill="url(#paint6_linear_2634_41609)"/>
</g>
<g filter="url(#filter1_i_2634_41609)">
<path d="M52.3495 39.0155C52.8255 39.1179 53.2494 38.7134 53.1501 38.2368C52.6035 35.6146 50.7922 28.7778 46.9557 30.0235C43.4689 31.1681 50.9623 37.9107 52.0478 38.8658C52.1349 38.9424 52.2361 38.991 52.3495 39.0155Z" fill="url(#paint7_linear_2634_41609)"/>
</g>
<path d="M48.002 31.3877C48.002 31.3877 52.4886 37.2438 52.54 38.4827L48.002 31.3877Z" fill="#77FFE4" fill-opacity="0.2"/>
<path d="M56.6885 29.2313C56.6885 29.2313 53.0019 33.9345 52.6011 36.0219L56.6885 29.2313Z" fill="#77FFE4" fill-opacity="0.2"/>
<path d="M47.8617 38.6204C47.7704 37.6738 48.5145 36.8545 49.4656 36.8545H54.1548C55.1059 36.8545 55.85 37.6738 55.7587 38.6204L55.1997 44.4192C55.12 45.2454 54.4258 45.8759 53.5958 45.8759H50.0246C49.1946 45.8759 48.5004 45.2454 48.4207 44.4192L47.8617 38.6204Z" fill="url(#paint8_linear_2634_41609)"/>
<g filter="url(#filter2_i_2634_41609)">
<rect x="47.3945" y="36.8545" width="8.83241" height="2.17444" rx="0.805661" fill="url(#paint9_linear_2634_41609)"/>
</g>
<g filter="url(#filter3_f_2634_41609)">
<ellipse cx="28.2128" cy="50.4289" rx="19.4804" ry="0.211155" fill="black" fill-opacity="0.37"/>
</g>
<g filter="url(#filter4_d_2634_41609)">
<path d="M15.8367 27.5488H39.5785L42.1927 31.5734L13.668 31.4155L15.8367 27.5488Z" fill="url(#paint10_linear_2634_41609)"/>
</g>
<g filter="url(#filter5_ii_2634_41609)">
<path d="M13.666 31.3887L42.194 31.5726V50.6445H13.666V31.3887Z" fill="#4392F4"/>
</g>
<g filter="url(#filter6_i_2634_41609)">
<path d="M13.7407 31.3079L15.8401 27.5547L11.2995 29.3052L8.01953 33.1513L13.7407 31.3079Z" fill="#4392F4"/>
</g>
<g filter="url(#filter7_i_2634_41609)">
<path d="M42.1477 31.6352L39.589 27.5322L44.1242 29.9532L46.9043 33.9629L42.1477 31.6352Z" fill="#4392F4"/>
</g>
<path d="M31.9086 16.9553C26.1222 22.0391 22.7888 30.2682 28.5267 37.6558" stroke="#82BBCA" stroke-width="0.68564" stroke-linecap="round" stroke-linejoin="round" stroke-dasharray="2.08 0"/>
<ellipse cx="32.4854" cy="16.5004" rx="1.63317" ry="1.02973" transform="rotate(-31.9578 32.4854 16.5004)" fill="url(#paint11_radial_2634_41609)"/>
<ellipse cx="29.9193" cy="13.6835" rx="2.55596" ry="0.944456" transform="rotate(39.9043 29.9193 13.6835)" fill="white"/>
<ellipse cx="34.5641" cy="19.7859" rx="2.55596" ry="0.944456" transform="rotate(60.5713 34.5641 19.7859)" fill="white"/>
<g filter="url(#filter8_i_2634_41609)">
<path d="M10.3027 37.5457L13.683 31.4141H42.0778L44.9209 37.59C45.13 38.0443 44.7982 38.5624 44.2981 38.5624H10.9031C10.3813 38.5624 10.0507 38.0027 10.3027 37.5457Z" fill="#4392F4"/>
</g>
<defs>
<filter id="filter0_i_2634_41609" x="50.9609" y="27.5191" width="8.24333" height="10.5014" filterUnits="userSpaceOnUse" color-interpolation-filters="sRGB">
<feFlood flood-opacity="0" result="BackgroundImageFix"/>
<feBlend mode="normal" in="SourceGraphic" in2="BackgroundImageFix" result="shape"/>
<feColorMatrix in="SourceAlpha" type="matrix" values="0 0 0 0 0 0 0 0 0 0 0 0 0 0 0 0 0 0 127 0" result="hardAlpha"/>
<feOffset dx="0.772629" dy="-0.295356"/>
<feGaussianBlur stdDeviation="1.00708"/>
<feComposite in2="hardAlpha" operator="arithmetic" k2="-1" k3="1"/>
<feColorMatrix type="matrix" values="0 0 0 0 0.113056 0 0 0 0 0.616667 0 0 0 0 0.58645 0 0 0 1 0"/>
<feBlend mode="normal" in2="shape" result="effect1_innerShadow_2634_41609"/>
</filter>
<filter id="filter1_i_2634_41609" x="46.0371" y="29.5777" width="7.89958" height="9.45356" filterUnits="userSpaceOnUse" color-interpolation-filters="sRGB">
<feFlood flood-opacity="0" result="BackgroundImageFix"/>
<feBlend mode="normal" in="SourceGraphic" in2="BackgroundImageFix" result="shape"/>
<feColorMatrix in="SourceAlpha" type="matrix" values="0 0 0 0 0 0 0 0 0 0 0 0 0 0 0 0 0 0 127 0" result="hardAlpha"/>
<feOffset dx="0.772629" dy="-0.295356"/>
<feGaussianBlur stdDeviation="1.00708"/>
<feComposite in2="hardAlpha" operator="arithmetic" k2="-1" k3="1"/>
<feColorMatrix type="matrix" values="0 0 0 0 0.0996528 0 0 0 0 0.683333 0 0 0 0 0.555806 0 0 0 1 0"/>
<feBlend mode="normal" in2="shape" result="effect1_innerShadow_2634_41609"/>
</filter>
<filter id="filter2_i_2634_41609" x="47.3945" y="36.6128" width="9.1543" height="2.4165" filterUnits="userSpaceOnUse" color-interpolation-filters="sRGB">
<feFlood flood-opacity="0" result="BackgroundImageFix"/>
<feBlend mode="normal" in="SourceGraphic" in2="BackgroundImageFix" result="shape"/>
<feColorMatrix in="SourceAlpha" type="matrix" values="0 0 0 0 0 0 0 0 0 0 0 0 0 0 0 0 0 0 127 0" result="hardAlpha"/>
<feOffset dx="0.322265" dy="-0.241698"/>
<feGaussianBlur stdDeviation="0.281982"/>
<feComposite in2="hardAlpha" operator="arithmetic" k2="-1" k3="1"/>
<feColorMatrix type="matrix" values="0 0 0 0 0.833333 0 0 0 0 0.604343 0 0 0 0 0.0555555 0 0 0 1 0"/>
<feBlend mode="normal" in2="shape" result="effect1_innerShadow_2634_41609"/>
</filter>
<filter id="filter3_f_2634_41609" x="7.28699" y="48.7723" width="41.8518" height="3.31273" filterUnits="userSpaceOnUse" color-interpolation-filters="sRGB">
<feFlood flood-opacity="0" result="BackgroundImageFix"/>
<feBlend mode="normal" in="SourceGraphic" in2="BackgroundImageFix" result="shape"/>
<feGaussianBlur stdDeviation="0.722715" result="effect1_foregroundBlur_2634_41609"/>
</filter>
<filter id="filter4_d_2634_41609" x="12.0286" y="26.7291" width="31.8042" height="7.30324" filterUnits="userSpaceOnUse" color-interpolation-filters="sRGB">
<feFlood flood-opacity="0" result="BackgroundImageFix"/>
<feColorMatrix in="SourceAlpha" type="matrix" values="0 0 0 0 0 0 0 0 0 0 0 0 0 0 0 0 0 0 127 0" result="hardAlpha"/>
<feOffset dy="0.819708"/>
<feGaussianBlur stdDeviation="0.819708"/>
<feColorMatrix type="matrix" values="0 0 0 0 0 0 0 0 0 0 0 0 0 0 0 0 0 0 0.25 0"/>
<feBlend mode="normal" in2="BackgroundImageFix" result="effect1_dropShadow_2634_41609"/>
<feBlend mode="normal" in="SourceGraphic" in2="effect1_dropShadow_2634_41609" result="shape"/>
</filter>
<filter id="filter5_ii_2634_41609" x="12.9503" y="31.3887" width="29.243" height="20.0431" filterUnits="userSpaceOnUse" color-interpolation-filters="sRGB">
<feFlood flood-opacity="0" result="BackgroundImageFix"/>
<feBlend mode="normal" in="SourceGraphic" in2="BackgroundImageFix" result="shape"/>
<feColorMatrix in="SourceAlpha" type="matrix" values="0 0 0 0 0 0 0 0 0 0 0 0 0 0 0 0 0 0 127 0" result="hardAlpha"/>
<feOffset dy="0.787273"/>
<feGaussianBlur stdDeviation="0.405186"/>
<feComposite in2="hardAlpha" operator="arithmetic" k2="-1" k3="1"/>
<feColorMatrix type="matrix" values="0 0 0 0 0.641667 0 0 0 0 0.8495 0 0 0 0 1 0 0 0 1 0"/>
<feBlend mode="normal" in2="shape" result="effect1_innerShadow_2634_41609"/>
<feColorMatrix in="SourceAlpha" type="matrix" values="0 0 0 0 0 0 0 0 0 0 0 0 0 0 0 0 0 0 127 0" result="hardAlpha"/>
<feOffset dx="-0.715703"/>
<feGaussianBlur stdDeviation="0.405186"/>
<feComposite in2="hardAlpha" operator="arithmetic" k2="-1" k3="1"/>
<feColorMatrix type="matrix" values="0 0 0 0 0 0 0 0 0 0 0 0 0 0 0 0 0 0 0.25 0"/>
<feBlend mode="normal" in2="effect1_innerShadow_2634_41609" result="effect2_innerShadow_2634_41609"/>
</filter>
<filter id="filter6_i_2634_41609" x="7.39336" y="27.5547" width="8.44648" height="5.59668" filterUnits="userSpaceOnUse" color-interpolation-filters="sRGB">
<feFlood flood-opacity="0" result="BackgroundImageFix"/>
<feBlend mode="normal" in="SourceGraphic" in2="BackgroundImageFix" result="shape"/>
<feColorMatrix in="SourceAlpha" type="matrix" values="0 0 0 0 0 0 0 0 0 0 0 0 0 0 0 0 0 0 127 0" result="hardAlpha"/>
<feOffset dx="-0.626168"/>
<feGaussianBlur stdDeviation="0.313084"/>
<feComposite in2="hardAlpha" operator="arithmetic" k2="-1" k3="1"/>
<feColorMatrix type="matrix" values="0 0 0 0 0.00392157 0 0 0 0 0.282353 0 0 0 0 0.635294 0 0 0 1 0"/>
<feBlend mode="normal" in2="shape" result="effect1_innerShadow_2634_41609"/>
</filter>
<filter id="filter7_i_2634_41609" x="38.9637" y="26.8466" width="7.94062" height="7.1163" filterUnits="userSpaceOnUse" color-interpolation-filters="sRGB">
<feFlood flood-opacity="0" result="BackgroundImageFix"/>
<feBlend mode="normal" in="SourceGraphic" in2="BackgroundImageFix" result="shape"/>
<feColorMatrix in="SourceAlpha" type="matrix" values="0 0 0 0 0 0 0 0 0 0 0 0 0 0 0 0 0 0 127 0" result="hardAlpha"/>
<feOffset dx="-0.626168" dy="-0.68564"/>
<feGaussianBlur stdDeviation="0.34282"/>
<feComposite in2="hardAlpha" operator="arithmetic" k2="-1" k3="1"/>
<feColorMatrix type="matrix" values="0 0 0 0 0.00392157 0 0 0 0 0.282353 0 0 0 0 0.635294 0 0 0 1 0"/>
<feBlend mode="normal" in2="shape" result="effect1_innerShadow_2634_41609"/>
</filter>
<filter id="filter8_i_2634_41609" x="10.2168" y="31.4141" width="34.7676" height="7.14844" filterUnits="userSpaceOnUse" color-interpolation-filters="sRGB">
<feFlood flood-opacity="0" result="BackgroundImageFix"/>
<feBlend mode="normal" in="SourceGraphic" in2="BackgroundImageFix" result="shape"/>
<feColorMatrix in="SourceAlpha" type="matrix" values="0 0 0 0 0 0 0 0 0 0 0 0 0 0 0 0 0 0 127 0" result="hardAlpha"/>
<feOffset/>
<feGaussianBlur stdDeviation="0.654786"/>
<feComposite in2="hardAlpha" operator="arithmetic" k2="-1" k3="1"/>
<feColorMatrix type="matrix" values="0 0 0 0 0.00392157 0 0 0 0 0.282353 0 0 0 0 0.635294 0 0 0 1 0"/>
<feBlend mode="normal" in2="shape" result="effect1_innerShadow_2634_41609"/>
</filter>
<linearGradient id="paint0_linear_2634_41609" x1="30.5017" y1="0" x2="30.5017" y2="58.9957" gradientUnits="userSpaceOnUse">
<stop stop-color="#B5EFFF"/>
<stop offset="1" stop-color="#E7F8FE"/>
</linearGradient>
<linearGradient id="paint1_linear_2634_41609" x1="30.3174" y1="0" x2="30.3174" y2="58.651" gradientUnits="userSpaceOnUse">
<stop stop-color="#B5EFFF"/>
<stop offset="1" stop-color="#EDFBFF"/>
</linearGradient>
<linearGradient id="paint2_linear_2634_41609" x1="26.8732" y1="39.999" x2="35.1939" y2="65.2726" gradientUnits="userSpaceOnUse">
<stop stop-color="#7FD3E9"/>
<stop offset="1" stop-color="#7FD3E9" stop-opacity="0"/>
</linearGradient>
<radialGradient id="paint3_radial_2634_41609" cx="0" cy="0" r="1" gradientUnits="userSpaceOnUse" gradientTransform="translate(1.97468 36.6603) rotate(-15.1772) scale(7.18185 7.18185)">
<stop stop-color="#FFF1CF"/>
<stop offset="0.1875" stop-color="#FFE4A2"/>
<stop offset="0.317708" stop-color="#FFD364"/>
<stop offset="0.489583" stop-color="#FFD364"/>
<stop offset="0.651042" stop-color="#FFC73A"/>
<stop offset="0.947917" stop-color="#D09500"/>
</radialGradient>
<radialGradient id="paint4_radial_2634_41609" cx="0" cy="0" r="1" gradientUnits="userSpaceOnUse" gradientTransform="translate(2.42385 36.6437) rotate(121.889) scale(1.57287 1.43242)">
<stop stop-color="white"/>
<stop offset="0.6944" stop-color="white" stop-opacity="0"/>
</radialGradient>
<radialGradient id="paint5_radial_2634_41609" cx="0" cy="0" r="1" gradientUnits="userSpaceOnUse" gradientTransform="translate(53.0697 12.6015) rotate(-15.1772) scale(5.48167)">
<stop stop-color="#E6C6FF"/>
<stop offset="0.1875" stop-color="#C07DF5"/>
<stop offset="0.317708" stop-color="#BE6FFC"/>
<stop offset="0.489583" stop-color="#B56AF0"/>
<stop offset="0.651042" stop-color="#A745F4"/>
<stop offset="0.947917" stop-color="#9F3DED"/>
</radialGradient>
<linearGradient id="paint6_linear_2634_41609" x1="59.5137" y1="27.9756" x2="51.195" y2="35.4463" gradientUnits="userSpaceOnUse">
<stop stop-color="#BAFFF1" stop-opacity="0.26"/>
<stop offset="0.682292" stop-color="#4DC7AE"/>
<stop offset="0.96875" stop-color="#06896F"/>
</linearGradient>
<linearGradient id="paint7_linear_2634_41609" x1="55.8126" y1="30.8743" x2="50.7535" y2="39.3944" gradientUnits="userSpaceOnUse">
<stop stop-color="#B7FDEF"/>
<stop offset="0.682292" stop-color="#09B794"/>
<stop offset="0.96875" stop-color="#7EE0CC"/>
</linearGradient>
<linearGradient id="paint8_linear_2634_41609" x1="55.929" y1="42.7934" x2="48.2793" y2="42.7934" gradientUnits="userSpaceOnUse">
<stop offset="0.0989583" stop-color="#FFEEC5"/>
<stop offset="0.606776" stop-color="#FACD63"/>
<stop offset="0.838542" stop-color="#EAAF23"/>
<stop offset="0.984375" stop-color="#EDB52F"/>
</linearGradient>
<linearGradient id="paint9_linear_2634_41609" x1="56.2269" y1="38.286" x2="48.0248" y2="38.286" gradientUnits="userSpaceOnUse">
<stop offset="0.0989583" stop-color="#FFEEC5"/>
<stop offset="0.606776" stop-color="#FCBD27"/>
<stop offset="0.984375" stop-color="#EFB222"/>
</linearGradient>
<linearGradient id="paint10_linear_2634_41609" x1="27.8943" y1="22.7501" x2="27.8943" y2="27.0764" gradientUnits="userSpaceOnUse">
<stop stop-color="#448EEB"/>
<stop offset="1" stop-color="#0048A2"/>
</linearGradient>
<radialGradient id="paint11_radial_2634_41609" cx="0" cy="0" r="1" gradientUnits="userSpaceOnUse" gradientTransform="translate(33.3523 16.664) rotate(135.025) scale(1.22546 1.9436)">
<stop stop-color="#69849C"/>
<stop offset="1" stop-color="#475867"/>
</radialGradient>
</defs>
</svg>
