<svg width="83" height="70" viewBox="0 0 83 70" fill="none" xmlns="http://www.w3.org/2000/svg">
<path opacity="0.2" d="M41.5696 64.6348C58.9387 64.6348 73.0191 50.5544 73.0191 33.1853C73.0191 15.8163 58.9387 1.73584 41.5696 1.73584C24.2005 1.73584 10.1201 15.8163 10.1201 33.1853C10.1201 50.5544 24.2005 64.6348 41.5696 64.6348Z" fill="#BEC6D2"/>
<path d="M18.3481 10.8564H64.7864C66.7551 10.8564 68.3591 12.4541 68.3591 14.4291V51.9421C68.3591 53.9108 66.7614 55.5147 64.7864 55.5147H18.3481C16.3793 55.5147 14.7754 53.9171 14.7754 51.9421V14.4291C14.7754 12.4604 16.3731 10.8564 18.3481 10.8564Z" fill="white" stroke="#91A1B0" stroke-width="0.754788" stroke-miterlimit="10"/>
<path d="M46.501 44.9916H33.3677C29.2037 44.9916 25.8135 41.6014 25.8135 37.4375C25.8135 33.2736 29.2037 29.8833 33.3677 29.8833H46.501C50.6649 29.8833 54.0551 33.2736 54.0551 37.4375C54.0551 41.6014 50.6649 44.9916 46.501 44.9916Z" fill="#BEC6D2"/>
<path d="M33.8018 42.916C36.8274 42.916 39.2802 40.4632 39.2802 37.4375C39.2802 34.4118 36.8274 31.959 33.8018 31.959C30.7761 31.959 28.3232 34.4118 28.3232 37.4375C28.3232 40.4632 30.7761 42.916 33.8018 42.916Z" fill="#F2F4F6"/>
<path d="M78.6865 69H82.1397" stroke="#91A1B0" stroke-width="0.754788" stroke-linecap="round" stroke-linejoin="round"/>
<path d="M59.8232 69H74.9379" stroke="#91A1B0" stroke-width="0.754788" stroke-linecap="round" stroke-linejoin="round"/>
<path d="M1 69H56.2379" stroke="#91A1B0" stroke-width="0.754788" stroke-linecap="round" stroke-linejoin="round"/>
<path d="M18.0642 11.2778H65.119C66.6789 11.2778 67.9495 12.5484 67.9495 14.1083V21.5681H15.1709V14.1712C15.1709 12.5736 16.4666 11.2778 18.0642 11.2778Z" fill="#91A1B0" stroke="#91A1B0" stroke-width="0.522062" stroke-linecap="round" stroke-linejoin="round"/>
<path d="M27.1971 16.4229H21.0078H27.1971Z" fill="white"/>
<path d="M27.1971 16.4229H21.0078" stroke="white" stroke-width="0.754788" stroke-miterlimit="10" stroke-linecap="round"/>
<path d="M5.96875 9.8623H9.76787" stroke="#91A1B0" stroke-width="0.754788" stroke-linecap="round" stroke-linejoin="round"/>
<path d="M14.2715 1V4.80539" stroke="#91A1B0" stroke-width="0.754788" stroke-linecap="round" stroke-linejoin="round"/>
<path d="M7.5791 3.72363L10.5982 6.0446" stroke="#91A1B0" stroke-width="0.754788" stroke-linecap="round" stroke-linejoin="round"/>
<path d="M64.937 62.71C71.1899 62.71 76.2589 57.6411 76.2589 51.3882C76.2589 45.1354 71.1899 40.0664 64.937 40.0664C58.6842 40.0664 53.6152 45.1354 53.6152 51.3882C53.6152 57.6411 58.6842 62.71 64.937 62.71Z" fill="white" stroke="#91A1B0" stroke-width="0.754788" stroke-miterlimit="10"/>
<path d="M61.339 54.9862C61.1943 54.8415 61.1943 54.6025 61.339 54.4515L68.0125 47.7779C68.1572 47.6333 68.3962 47.6333 68.5472 47.7779C68.6981 47.9226 68.6918 48.1616 68.5472 48.3126L61.8736 54.9862C61.7289 55.1308 61.4899 55.1308 61.339 54.9862Z" fill="#91A1B0"/>
<path d="M68.0067 54.9861L61.3331 48.3125C61.1884 48.1678 61.1884 47.9288 61.3331 47.7779C61.4778 47.6269 61.7168 47.6332 61.8677 47.7779L68.5413 54.4514C68.686 54.5961 68.686 54.8351 68.5413 54.9861C68.3966 55.137 68.1576 55.1308 68.0067 54.9861Z" fill="#91A1B0"/>
</svg>
