<svg width="398" height="224" viewBox="0 0 398 224" fill="none" xmlns="http://www.w3.org/2000/svg">
<g clip-path="url(#clip0_719_20075)">
<path fill-rule="evenodd" clip-rule="evenodd" d="M20.4102 145.13C21.2802 142.47 23.0602 140.19 25.4502 138.74C34.0602 133.51 43.0402 133.36 48.8202 124.02C56.8802 110.99 53.1502 93.11 61.4102 80.23C68.1002 69.81 81.0002 65.28 93.2502 63.56C105.5 61.85 118.15 62.24 129.91 58.38C150.03 51.81 164.17 34.29 180.52 20.84C196.86 7.39002 220.82 -2.26998 238.63 9.16002C253.56 18.76 258.34 39.83 273.9 48.44C287.38 55.87 303.91 51.34 319.15 49.27C334.4 47.22 353.5 50.18 358.98 64.56C364.54 79.17 351.92 95.85 356.81 110.69C361.77 125.83 381.39 130.23 391.23 142.77C402.6 157.25 397.5 179.84 384.37 192.74C371.24 205.65 352.41 210.82 334.21 213.6C319.41 215.85 304.47 211.93 289.49 206.55C253.6 193.66 214.8 191.17 177.43 198.8L108.54 212.87C94.4002 215.76 79.7002 211.1 70.0402 200.39C65.2602 195.09 61.1702 189.24 58.0902 184.29C48.8602 169.47 -4.00982 181.77 18.0902 149.76C19.0702 148.33 19.8702 146.78 20.4102 145.14V145.13Z" fill="#EBEFF3"/>
<path d="M25.9903 135.52C34.8803 133.89 42.2703 127.4 44.3403 118.61C45.8003 112.38 44.5903 105.25 35.3503 99.94C14.8203 88.15 34.2303 84.22 20.0803 77.39C6.85034 71 -20.4297 144.02 25.9903 135.52Z" fill="#EBEFF3"/>
<path opacity="0.9" d="M120.26 69.2401L118.51 56.1401L142.78 9.25008L160.91 6.83008L166.5 48.7701L174.28 47.7301L176.15 61.7701L168.37 62.8101L170.02 75.1501L153.79 77.3101L152.14 64.9701L120.26 69.2201V69.2401ZM148.2 26.6901L135.47 52.9201L151.41 50.7901L148.2 26.6901Z" fill="#CFD7DF"/>
<g opacity="0.9">
<path d="M192.229 32.09C197.269 26.39 204.469 24.16 213.839 25.41C223.199 26.66 229.569 30.69 232.939 37.52C236.309 44.34 237.269 53.2 235.819 64.08C234.349 75.09 231.099 83.44 226.059 89.15C221.019 94.85 213.809 97.08 204.449 95.83C195.089 94.58 188.719 90.55 185.349 83.72C181.979 76.9 181.029 67.98 182.489 56.97C183.939 46.09 187.189 37.8 192.229 32.09ZM219.759 46.91C218.829 43.28 216.179 41.17 211.809 40.59C207.439 40.01 204.339 41.35 202.489 44.61C200.639 47.87 199.289 52.7 198.439 59.09C197.869 63.39 197.639 66.98 197.779 69.87C197.909 72.75 198.629 75.17 199.949 77.11C201.269 79.06 203.449 80.23 206.479 80.64C209.509 81.05 211.919 80.48 213.709 78.95C215.489 77.42 216.819 75.28 217.699 72.53C218.579 69.78 219.309 66.26 219.879 61.96C220.729 55.57 220.689 50.56 219.759 46.92V46.91Z" fill="white"/>
<path d="M192.229 32.09C197.269 26.39 204.469 24.16 213.839 25.41C223.199 26.66 229.569 30.69 232.939 37.52C236.309 44.34 237.269 53.2 235.819 64.08C234.349 75.09 231.099 83.44 226.059 89.15C221.019 94.85 213.809 97.08 204.449 95.83C195.089 94.58 188.719 90.55 185.349 83.72C181.979 76.9 181.029 67.98 182.489 56.97C183.939 46.09 187.189 37.8 192.229 32.09Z" stroke="#92A2B1" stroke-miterlimit="10"/>
<path d="M219.77 46.9101C218.84 43.2801 216.19 41.1701 211.82 40.5901C207.45 40.0101 204.35 41.3501 202.5 44.6101C200.65 47.8701 199.3 52.7001 198.45 59.0901C197.88 63.3901 197.65 66.9801 197.79 69.8701C197.92 72.7501 198.64 75.1701 199.96 77.1101C201.28 79.0601 203.46 80.2301 206.49 80.6401C209.53 81.0401 211.93 80.4801 213.72 78.9501C215.5 77.4201 216.83 75.2801 217.71 72.5301C218.59 69.7801 219.32 66.2601 219.89 61.9601C220.74 55.5701 220.7 50.5601 219.77 46.9201V46.9101Z" stroke="#92A2B1" stroke-miterlimit="10"/>
</g>
<path opacity="0.9" d="M247.461 67.91L243.721 55.24L260.491 5.18001L278.031 0.0100098L290.001 40.6L297.531 38.38L301.541 51.97L294.011 54.19L297.531 66.13L281.831 70.76L278.311 58.82L247.461 67.92V67.91ZM268.521 21.57L259.981 49.44L275.411 44.89L268.531 21.57H268.521Z" fill="#CFD7DF"/>
<path d="M295.971 116.44C308.081 110.66 319.251 98.6 323.351 74.64C333.881 13.08 374.111 18.19 376.001 31.97" stroke="#92A2B1" stroke-width="0.5" stroke-linecap="round" stroke-linejoin="round"/>
<path d="M255.66 119.16C255.66 119.16 261.08 120.77 268.88 121.21" stroke="#92A2B1" stroke-width="0.5" stroke-linecap="round" stroke-linejoin="round"/>
<path d="M231.438 101.983L245.869 104.561C252.386 105.726 256.736 111.968 255.571 118.485C254.462 124.697 248.521 128.836 242.309 127.726L227.317 125.048C225.683 124.756 224.599 123.201 224.891 121.567L227.957 104.409C228.249 102.774 229.803 101.691 231.438 101.983Z" fill="#CFD7DF"/>
<path d="M296.94 209.13H232.26" stroke="#CFD7DF" stroke-width="0.5"/>
<path d="M297.881 209.43V216.73H368.681" stroke="#CFD7DF" stroke-width="0.5"/>
<path d="M261.67 110.87L245.26 105.78" stroke="#273139" stroke-width="0.5" stroke-linecap="round" stroke-linejoin="round"/>
<path d="M262.75 106.34C257.49 105.13 252.77 104.73 247.49 103.51" stroke="#273139" stroke-width="0.5" stroke-linecap="round" stroke-linejoin="round"/>
<path d="M245.92 105.85C243.75 105.54 239.54 104.61 237.53 103.71C237.04 103.5 236.59 103.23 236.17 102.9L236.14 102.87C235.83 102.63 235.73 102.22 235.89 101.88C236.05 101.52 236.43 101.34 236.8 101.41L242.03 102.4" stroke="#273139" stroke-width="0.5" stroke-linecap="round" stroke-linejoin="round"/>
<path d="M244.189 103.75C243.059 103.37 242.119 102.53 241.609 101.45C241.459 101.14 241.519 100.77 241.759 100.53C241.999 100.29 242.359 100.22 242.669 100.36C243.679 100.72 244.659 101.18 245.579 101.74" stroke="#273139" stroke-width="0.5" stroke-linecap="round" stroke-linejoin="round"/>
<path d="M281.121 114.84C275.051 116.58 269.371 117.15 263.141 116.14" stroke="#273139" stroke-width="0.5" stroke-linecap="round" stroke-linejoin="round"/>
<path d="M288.65 106.67C281.2 108.09 273.51 107.64 266.28 105.35C265.23 105.01 264.08 105.48 263.58 106.47C262.09 109.25 261.49 112.43 261.86 115.57" stroke="#273139" stroke-width="0.5" stroke-linecap="round" stroke-linejoin="round"/>
<path d="M280.66 152.47L274.88 178.43L274.8 178.79C274.45 180.37 275.13 181.99 276.51 182.84L306.73 201.59C307.79 202.19 309.13 201.87 309.81 200.88C310.5 199.88 310.32 198.51 309.4 197.74L281.15 176.13L282.77 180.54L290.83 155.23C291.57 153.41 291.23 151.31 289.94 149.8C288.65 148.31 286.62 147.66 284.7 148.13C282.77 148.6 281.27 150.11 280.83 152.04C280.76 152.18 280.71 152.32 280.67 152.46L280.66 152.47Z" fill="#273139"/>
<path d="M311.6 198.07C311.98 200.59 311.08 203.13 309.2 204.85C308.43 206.5 309.34 208.71 307.78 212.11C306.23 215.52 309.64 217.78 311.06 214.68L314 208.38C314.31 207.72 314.45 206.99 314.42 206.26L314.3 203.73L316.34 198.47L311.6 198.07Z" fill="#273139"/>
<path d="M316.899 198.72L318.279 199.36L315.939 204.48L314.869 203.99L316.909 198.73L316.899 198.72Z" fill="#273139"/>
<path d="M310.43 207.13C310.1 206.92 309.71 206.87 309.35 207C309 207.12 308.71 207.39 308.57 207.74" stroke="#EBEFF3" stroke-width="0.5" stroke-linecap="round" stroke-linejoin="round"/>
<path d="M310.26 208.77C309.94 208.57 309.54 208.52 309.19 208.64C308.83 208.76 308.54 209.03 308.41 209.38" stroke="#EBEFF3" stroke-width="0.5" stroke-linecap="round" stroke-linejoin="round"/>
<path d="M309.899 210.36C309.569 210.16 309.179 210.11 308.819 210.23C308.469 210.35 308.179 210.62 308.039 210.97" stroke="#EBEFF3" stroke-width="0.5" stroke-linecap="round" stroke-linejoin="round"/>
<path d="M277.01 147.53L252.41 160.28L252.08 160.46C250.53 161.26 249.71 163.01 250.11 164.72L258.22 199.33C258.55 200.5 259.71 201.21 260.9 201C262.1 200.78 262.92 199.69 262.83 198.48L258.12 163.22L255.82 167.65L281.43 157.06C284.03 155.91 285.23 152.88 284.14 150.24C283.05 147.6 280.06 146.31 277.39 147.33L276.99 147.53H277.01Z" fill="#273139"/>
<path d="M288.439 103.16C289.289 102.8 290.259 102.85 291.069 103.3C291.869 103.76 292.419 104.55 292.559 105.47C294.579 118.81 294.329 131.52 297.059 144.99C297.449 146.93 299.589 150.65 298.989 152.54C298.239 154.89 298.059 155.78 295.609 156.51C294.149 156.92 292.639 157.11 291.139 157.05C285.399 156.87 277.529 155.97 274.659 150.42C272.859 146.92 273.679 142.67 274.929 138.94C275.649 136.82 275.919 134.63 277.279 132.87C279.159 130.52 281.139 128.16 283.169 125.94C285.639 123.17 288.309 120.23 288.749 116.55C289.129 113.23 287.569 109.77 288.539 106.54C285.399 111.85 280.989 116.3 275.719 119.49C275.719 119.49 275.559 115.18 275.639 114.72C275.949 113.33 276.479 112 277.209 110.78C278.419 108.43 280.259 106.12 282.809 105.14C284.709 104.42 286.659 103.95 288.449 103.17L288.439 103.16Z" fill="#1AB394"/>
<path d="M288.8 119.87C284.84 126.26 280.29 131.32 274 135.42" stroke="#273139" stroke-width="0.5" stroke-linecap="round" stroke-linejoin="round"/>
<path d="M288.869 106.65C283.459 113.88 276.319 119.65 268.119 123.44C266.919 123.98 266.299 125.31 266.639 126.58C267.559 130.23 269.579 133.52 272.439 136" stroke="#273139" stroke-width="0.5" stroke-linecap="round" stroke-linejoin="round"/>
<path d="M291.36 100.96C289.39 103.47 286.65 105.26 283.57 106.02C281.36 106.54 279.06 106.6 276.82 106.18" stroke="#273139" stroke-width="0.5" stroke-linecap="round" stroke-linejoin="round"/>
<path d="M276.761 137.31C275.941 137.76 275.391 137.97 274.571 137.55C273.731 137.14 273.981 136.42 273.801 135.5C274.241 135.28 274.671 135.03 275.081 134.75C277.851 133.04 281.341 129.45 283.471 126.96C284.261 126.05 287.341 121.13 288.771 119.9C290.061 118.79 284.651 129.59 283.901 130.71C282.061 133.44 279.621 135.71 276.751 137.33L276.761 137.31Z" fill="#273139"/>
<path d="M267.2 127.33C263.34 127.75 254.12 128.07 250.26 128.51" stroke="#273139" stroke-width="0.5" stroke-linecap="round" stroke-linejoin="round"/>
<path d="M267.659 131.91C261.429 132.13 256.009 131.6 249.779 131.83" stroke="#273139" stroke-width="0.5" stroke-linecap="round" stroke-linejoin="round"/>
<path d="M249.919 132.33C247.419 131.97 242.569 130.89 240.269 129.85C239.699 129.6 239.179 129.29 238.689 128.92L238.639 128.88C238.289 128.62 238.169 128.13 238.359 127.73C238.539 127.33 238.969 127.11 239.409 127.18L245.239 128.72" stroke="#273139" stroke-width="0.5" stroke-linecap="round" stroke-linejoin="round"/>
<path d="M247.93 129.9C246.63 129.49 245.46 129.07 244.87 127.85C244.69 127.5 244.76 127.07 245.05 126.79C245.32 126.51 245.74 126.43 246.11 126.59C247.43 127.16 248.7 127.84 249.91 128.61" stroke="#273139" stroke-width="0.5" stroke-linecap="round" stroke-linejoin="round"/>
<path d="M293.99 90.04C290.59 90.04 287.85 87.3 287.85 83.9C287.85 80.5 290.59 77.74 293.99 77.74C297.39 77.74 300.15 80.49 300.15 83.9C300.15 87.31 297.4 90.04 293.99 90.04Z" fill="#273139"/>
<path d="M283.92 83.9699C285.32 84.2799 286.64 84.9099 287.75 85.8299C289.83 87.5599 291.06 90.1399 291.06 92.8599C291.06 93.1999 291.04 93.5399 291 93.8799C293.2 91.7599 293.52 88.3499 291.74 85.8599C289.97 83.3799 286.64 82.5599 283.94 83.9599H283.93L283.92 83.9699Z" fill="#FF5959"/>
<path d="M284.65 77.0401C286.6 77.9701 287.97 79.8201 288.28 81.9601C288.23 79.7201 289.4 75.8501 291.22 74.6001" stroke="#273139" stroke-width="0.5" stroke-linecap="round" stroke-linejoin="round"/>
<path d="M272.84 92.8701C272.84 96.5501 275.05 99.8901 278.47 101.3C281.87 102.71 285.79 101.94 288.41 99.3301C291.02 96.7201 291.8 92.8001 290.39 89.4001C288.98 85.9901 285.65 83.7601 281.96 83.7701C276.93 83.7701 272.85 87.8401 272.85 92.8701H272.84Z" stroke="#273139" stroke-width="0.5" stroke-linecap="round" stroke-linejoin="round"/>
<path d="M278.44 88.92C275.18 88.46 271.73 86.24 271.73 82.83C271.75 80.84 272.99 79.07 274.84 78.37C276.78 77.65 278.97 78.28 280.23 79.92C280.83 80.67 281.93 80.8 282.69 80.23C285.04 78.51 288.23 79.74 288.46 83.31C288.79 88.3 282.28 89.43 278.44 88.91V88.92Z" fill="#273139"/>
<path d="M285.709 90.7701C285.699 93.5801 287.379 96.1101 289.959 97.2001C292.019 93.3701 291.089 88.6201 287.749 85.8501C286.439 87.1601 285.699 88.9301 285.709 90.7701Z" fill="#273139"/>
<path d="M281.82 86.9101C278.75 87.7501 275.46 86.8501 273.25 84.5601" stroke="white" stroke-width="0.5" stroke-linecap="round" stroke-linejoin="round"/>
<path d="M287.601 88.8701C287.121 90.0401 287.151 91.3401 287.671 92.4801C288.201 93.6201 289.161 94.4801 290.371 94.8801" stroke="white" stroke-width="0.5" stroke-linecap="round" stroke-linejoin="round"/>
<path d="M273 94.9899C271.52 94.9899 270.33 93.7899 270.33 92.3199C270.33 90.8499 271.52 89.6599 273 89.6599C274.48 89.6599 275.66 90.8499 275.66 92.3199C275.66 93.7899 274.47 94.9899 273 94.9899Z" fill="#EBEFF3" stroke="#273139" stroke-width="0.5" stroke-linecap="round" stroke-linejoin="round"/>
<path d="M279.99 94.9899C278.52 94.9899 277.33 93.7899 277.33 92.3199C277.33 90.8499 278.52 89.6599 279.99 89.6599C281.46 89.6599 282.66 90.8499 282.66 92.3199C282.66 93.7899 281.46 94.9899 279.99 94.9899Z" fill="#EBEFF3" stroke="#273139" stroke-width="0.5" stroke-linecap="round" stroke-linejoin="round"/>
<path d="M277.32 92.3201H275.66" stroke="#273139" stroke-width="0.5" stroke-linecap="round" stroke-linejoin="round"/>
<path d="M278.75 90.19L278.91 90.03L281.85 92.97" stroke="#273139" stroke-width="0.5" stroke-linecap="round" stroke-linejoin="round"/>
<path d="M271.59 90.74L274.72 93.54" stroke="#273139" stroke-width="0.5" stroke-linecap="round" stroke-linejoin="round"/>
<path d="M279.68 93.26L280.9 94.5" stroke="#273139" stroke-width="0.5" stroke-linecap="round" stroke-linejoin="round"/>
<path d="M270.74 91.47L271.96 92.69" stroke="#273139" stroke-width="0.5" stroke-linecap="round" stroke-linejoin="round"/>
<path d="M291.779 90.8C291.979 88.96 291.259 87.16 289.859 85.97" stroke="#273139" stroke-width="0.5" stroke-linecap="round" stroke-linejoin="round"/>
<path d="M264.201 201.68C262.151 203.2 259.481 203.58 257.091 202.7C255.281 202.79 253.741 204.62 249.991 204.82C246.251 205.02 245.831 209.12 249.251 208.94L256.211 208.63C256.931 208.61 257.631 208.41 258.271 208.04L260.471 206.76L266.071 206.11L264.201 201.67V201.68Z" fill="#273139"/>
<path d="M266.09 206.69L266.17 208.2L260.56 208.51L260.49 207.34L266.09 206.69Z" fill="#273139"/>
<path d="M255.65 204.87C255.67 204.49 255.53 204.13 255.26 203.87C254.99 203.6 254.61 203.48 254.24 203.52" stroke="#EBEFF3" stroke-width="0.5" stroke-linecap="round" stroke-linejoin="round"/>
<path d="M254.121 205.51C254.161 205.13 254.011 204.76 253.741 204.5C253.461 204.24 253.081 204.11 252.721 204.16" stroke="#EBEFF3" stroke-width="0.5" stroke-linecap="round" stroke-linejoin="round"/>
<path d="M252.531 205.9C252.571 205.52 252.421 205.16 252.151 204.9C251.871 204.63 251.491 204.51 251.131 204.55" stroke="#EBEFF3" stroke-width="0.5" stroke-linecap="round" stroke-linejoin="round"/>
<path d="M283.581 178.09C283.581 178.09 282.341 179.04 281.471 178.89" stroke="white" stroke-width="0.5" stroke-linecap="round" stroke-linejoin="round"/>
<path d="M258.77 166.62C258.77 166.62 258.64 166.4 257.77 166.21" stroke="white" stroke-width="0.5" stroke-linecap="round" stroke-linejoin="round"/>
<path d="M300.429 152.92C298.889 157.2 294.179 158.65 289.969 158.64C283.749 158.64 277.789 155.63 273.619 151.11C272.339 149.72 274.409 147.64 275.689 149.03C279.039 152.77 283.669 155.13 288.669 155.63C291.699 155.9 296.399 155.45 297.589 152.15C298.239 150.38 301.069 151.15 300.429 152.93V152.92Z" fill="#475867"/>
<path d="M276.359 117.73C275.699 112.82 277.909 107.96 282.059 105.23" stroke="#273139" stroke-width="0.5" stroke-linecap="round" stroke-linejoin="round"/>
<path d="M231.438 101.983L245.869 104.561C252.386 105.726 256.736 111.968 255.571 118.485C254.462 124.697 248.521 128.836 242.309 127.726L227.317 125.048C225.683 124.756 224.599 123.201 224.891 121.567L227.957 104.409C228.249 102.774 229.803 101.691 231.438 101.983Z" stroke="#92A2B1" stroke-width="0.5" stroke-linecap="round" stroke-linejoin="round"/>
<path d="M34.4898 191.67C33.0998 190.3 32.1998 188.65 31.9598 186.86C30.0698 173.08 47.3498 174.97 54.9098 159.31" stroke="#92A2B1" stroke-width="0.5" stroke-linecap="round" stroke-linejoin="round"/>
<path d="M113.07 101.88C100.54 107.46 88.8202 119.5 84.6002 144.19C80.6702 167.16 72.6002 180.85 63.9402 188.27C63.1302 188.96 62.3102 189.6 61.4902 190.19" stroke="#92A2B1" stroke-width="0.5" stroke-linecap="round" stroke-linejoin="round"/>
<path d="M152.29 99.66C152.29 99.66 150.21 99.04 146.77 98.46" stroke="#92A2B1" stroke-width="0.5" stroke-linecap="round" stroke-linejoin="round"/>
<path d="M166.306 110.532L193.535 115.397C194.079 115.494 194.598 115.132 194.695 114.589L194.864 113.644C194.961 113.1 194.599 112.58 194.056 112.483L166.827 107.618C166.283 107.521 165.764 107.883 165.667 108.427L165.498 109.372C165.401 109.916 165.763 110.435 166.306 110.532Z" fill="#CFD7DF"/>
<path d="M168.511 98.5874L195.74 103.452C196.284 103.549 196.803 103.187 196.9 102.644L197.069 101.699C197.166 101.155 196.804 100.636 196.261 100.538L169.032 95.6735C168.488 95.5764 167.969 95.9384 167.872 96.4821L167.703 97.4271C167.606 97.9708 167.968 98.4903 168.511 98.5874Z" fill="#CFD7DF"/>
<path d="M176.543 116.547L161.55 113.869C155.339 112.759 151.199 106.818 152.309 100.606C153.473 94.0897 159.716 89.7398 166.232 90.9041L180.664 93.4825C182.298 93.7745 183.381 95.3293 183.089 96.9634L180.024 114.122C179.732 115.756 178.177 116.839 176.543 116.547Z" fill="#CFD7DF"/>
<path d="M128.399 144.33L142.729 171L142.449 168.16L136.489 199.35C136.229 200.67 137.059 201.97 138.379 202.3C139.679 202.61 141.019 201.86 141.409 200.57L150.669 170.21C150.909 169.4 150.869 168.54 150.539 167.76L150.369 167.36L138.659 139.44C137.869 137.57 136.139 136.26 134.119 136.01C132.089 135.75 130.089 136.59 128.859 138.21C127.639 139.83 127.359 141.98 128.149 143.85C128.219 143.99 128.309 144.16 128.389 144.32L128.399 144.33Z" fill="#0A2E81"/>
<path d="M115.88 142.05L118.28 173.06L118.35 172.15L113.39 208.25C113.28 209.55 114.17 210.72 115.45 210.96C116.73 211.2 117.97 210.44 118.36 209.19L126.68 173.7C126.72 173.54 126.74 173.37 126.75 173.2V172.79L127.25 141.71C127.31 138.56 124.8 135.98 121.65 135.92C118.5 135.86 115.92 138.37 115.86 141.52C115.86 141.7 115.86 141.87 115.89 142.04L115.88 142.05Z" fill="#0A2E81"/>
<path d="M117.561 173.14C118.781 174.23 120.451 174.66 122.041 174.27" stroke="#EBEFF3" stroke-width="0.51" stroke-linecap="round" stroke-linejoin="round"/>
<path d="M112.76 210.21C114.22 212.49 115.85 213.75 118.63 213.49C121.05 214.5 122.17 215.02 124.93 214.72C127.68 214.44 130.28 217.66 126.18 218.68C123.8 219.35 121.35 219.67 118.88 219.63C118.09 219.57 117.35 219.26 116.75 218.75C116.01 218.18 115.36 217.53 114.81 216.81C113.08 215.82 111.61 214.41 109.73 213.7C110.72 212.52 111.77 211.39 112.76 210.21Z" fill="#273139"/>
<path d="M109.46 214.26C109.25 214.77 109.03 215.28 108.84 215.79C110.74 216.57 112.46 217.66 114.31 218.53C114.42 218.15 114.51 217.75 114.61 217.37C112.85 216.39 111.31 215.1 109.46 214.26Z" fill="#273139"/>
<path d="M119.709 215.81C119.699 215.43 119.839 215.06 120.109 214.77C120.379 214.5 120.749 214.33 121.129 214.34" stroke="#EBEFF3" stroke-width="0.51" stroke-linecap="round" stroke-linejoin="round"/>
<path d="M121.131 216.36C121.131 215.58 121.671 214.9 122.431 214.74" stroke="#EBEFF3" stroke-width="0.51" stroke-linecap="round" stroke-linejoin="round"/>
<path d="M122.629 216.46C122.589 215.67 123.079 214.94 123.839 214.72" stroke="#EBEFF3" stroke-width="0.51" stroke-linecap="round" stroke-linejoin="round"/>
<path d="M142.85 169.56C144.06 170.65 145.73 171.08 147.32 170.71" stroke="#EBEFF3" stroke-width="0.51" stroke-linecap="round" stroke-linejoin="round"/>
<path d="M134.74 202.41C137.04 203.93 139.93 204.2 142.47 203.12C144.44 203.12 146.2 205.01 150.27 205.01C154.34 205.01 155.01 209.39 151.32 209.39L143.79 209.46C143 209.46 142.23 209.29 141.52 208.92L139.08 207.67L133 207.3L134.74 202.41Z" fill="#273139"/>
<path d="M132.98 207.91V209.55H139.06V208.27L132.98 207.9V207.91Z" fill="#273139"/>
<path d="M144.139 205.34C144.079 204.94 144.209 204.53 144.489 204.23C144.759 203.93 145.139 203.78 145.549 203.79" stroke="#EBEFF3" stroke-width="0.51" stroke-linecap="round" stroke-linejoin="round"/>
<path d="M145.83 205.95C145.77 205.55 145.91 205.16 146.18 204.86C146.45 204.56 146.85 204.39 147.24 204.41" stroke="#EBEFF3" stroke-width="0.51" stroke-linecap="round" stroke-linejoin="round"/>
<path d="M147.59 206.28C147.53 205.88 147.67 205.47 147.94 205.17C148.21 204.87 148.61 204.72 149 204.73" stroke="#EBEFF3" stroke-width="0.51" stroke-linecap="round" stroke-linejoin="round"/>
<path d="M116.971 102.12C124.911 98.2301 130.461 93.5101 139.621 90.8301" stroke="#273139" stroke-width="0.5" stroke-linecap="round" stroke-linejoin="round"/>
<path d="M128.76 107.26C130.76 106.87 132.54 105.15 134.26 103.92C138.97 100.56 139.86 100.34 144.57 96.99" stroke="#273139" stroke-width="0.5" stroke-linecap="round" stroke-linejoin="round"/>
<path d="M135.711 91.9199C136.381 96.3399 139.591 98.7399 144.221 98.6599" stroke="#273139" stroke-width="0.5" stroke-linecap="round" stroke-linejoin="round"/>
<path d="M110.32 73.7201C107.7 74.0801 105.34 75.5101 103.81 77.6701C100.97 81.5301 101.02 86.4301 102.28 90.8701C102.61 91.9901 103.4 93.9001 102.34 94.8801C100.01 97.0101 92.7798 91.1501 91.3898 92.7201C90.3298 93.9501 92.9898 99.4301 97.6998 101.78C103.1 104.45 110.85 102.82 112.89 98.7601C115 94.5901 109.98 89.9601 112.37 86.6501C114.65 83.4901 120.55 85.9101 121.61 83.6201C122.98 80.6401 118.3 76.4301 116.2 75.1201C114.46 74.0001 112.38 73.5101 110.32 73.7201Z" fill="#273139"/>
<path d="M122.36 78.56C121.43 78.88 120.6 79.43 119.92 80.16C118.63 81.52 118.02 83.38 118.25 85.23C118.27 85.47 118.32 85.69 118.38 85.92C117.45 85.24 116.84 84.2 116.7 83.05C116.52 81.6 117.11 80.14 118.27 79.22C119.43 78.3 120.98 78.05 122.36 78.56Z" fill="#FF5959"/>
<path d="M138.261 118.44C138.191 119.18 138.071 119.92 137.911 120.65C135.921 119.22 133.741 117.18 133.221 115.15C134.731 114.71 137.201 117.59 138.251 118.44H138.261Z" fill="#92A2B1"/>
<path d="M143.471 126C151.221 122.1 152.871 121.5 162.241 116.15" stroke="#273139" stroke-width="0.5" stroke-linecap="round" stroke-linejoin="round"/>
<path d="M159.389 113.38C159.389 113.38 152.129 117.49 145.029 119.31C143.849 119.7 143.169 120.93 143.469 122.14" stroke="#273139" stroke-width="0.5" stroke-linecap="round" stroke-linejoin="round"/>
<path d="M162.109 115.75C164.349 116.55 166.659 117.1 169.009 117.38C169.439 117.42 169.879 117.39 170.309 117.32H170.349C170.659 117.26 170.899 117 170.909 116.69C170.929 116.37 170.729 116.08 170.419 116L166.249 114.74" stroke="#273139" stroke-width="0.5" stroke-linecap="round" stroke-linejoin="round"/>
<path d="M164.2 114.89C165.17 115.05 166.16 114.79 166.94 114.2C167.14 114.02 167.23 113.73 167.15 113.47C167.07 113.22 166.84 113.03 166.58 113.01C165.71 112.94 160.32 113.3 159.43 113.4" stroke="#273139" stroke-width="0.5" stroke-linecap="round" stroke-linejoin="round"/>
<path d="M138.261 118.44C138.191 119.18 138.071 119.92 137.911 120.65C135.921 119.22 133.741 117.18 133.221 115.15C134.731 114.71 137.201 117.59 138.251 118.44H138.261Z" fill="#231F20"/>
<path d="M136.22 83.7699C137.29 88.1199 136.16 94.4199 131.81 95.4899C127.45 96.5499 122.45 91.4599 121.38 87.0999C120.87 85.0099 121.21 82.8099 122.33 80.9599C123.44 79.1199 125.25 77.7999 127.34 77.2899C131.7 76.2199 135.16 79.4099 136.22 83.7799V83.7699Z" fill="white" stroke="#273139" stroke-width="0.5" stroke-linecap="round" stroke-linejoin="round"/>
<path d="M135.489 83.0901C137.109 82.9901 138.589 82.1201 139.459 80.7501C140.289 79.3301 140.079 77.5301 138.949 76.3501C137.579 75.0701 135.439 75.2601 133.579 75.5401L129.919 76.0901C129.489 76.1101 129.059 76.2301 128.669 76.4401C127.669 77.0401 127.509 78.4901 128.009 79.5301C129.209 81.9501 132.969 83.3001 135.489 83.1001V83.0901Z" fill="#273139"/>
<path d="M117.699 73.25C119.759 74.24 121.179 76.18 121.499 78.45C121.449 76.1 122.689 72.04 124.649 70.7" stroke="#273139" stroke-width="0.5" stroke-linecap="round" stroke-linejoin="round"/>
<path d="M135.7 81.4401C134.27 81.1401 132.8 81.0301 131.34 81.1201C128.88 81.3201 126.37 82.4701 125.14 84.6001C124.33 86.1601 124.08 87.9601 124.42 89.7001C124.61 90.8101 125.52 92.3501 123.69 92.3201C122.15 92.3201 120.66 91.7101 119.55 90.6301C118.29 89.3201 118.01 87.4601 118.01 85.7101C118.05 81.4801 120.84 77.7601 124.9 76.5501C128.97 75.3601 133.33 76.9701 135.64 80.5201C135.66 80.8201 135.69 81.1201 135.69 81.4401H135.7Z" fill="#273139"/>
<path d="M115.14 118.29C115.65 122.89 116.57 127.46 116.59 132.1C116.59 133.02 115.43 142.1 115.99 142.18C123.9 143.61 129.92 143.15 139.18 142.26C140.9 141.54 139.29 136.97 139 135.8C137.97 131.73 137.75 127.5 138.34 123.34C138.83 120.08 139.99 116.93 140.21 113.65C140.38 111.75 140.13 109.83 139.47 108.05C138.89 106.54 138.05 105.14 137 103.91C136.2 103.1 135.46 102.22 134.82 101.26C133.38 98.6801 132.15 101.09 128.26 101.05C124.81 101 122.18 97.1701 118.48 101.34C117.5 101.89 116.73 102.72 116.24 103.72C113.04 110.22 115.12 118.3 115.12 118.3L115.14 118.29Z" fill="#5CA6F4"/>
<path d="M140.4 90.6501C148.98 89.6601 148.28 89.5601 159.05 88.8601" stroke="#273139" stroke-width="0.5" stroke-linecap="round" stroke-linejoin="round"/>
<path d="M158.641 92.04C154.041 92.77 149.591 94.23 145.461 96.39" stroke="#273139" stroke-width="0.5" stroke-linecap="round" stroke-linejoin="round"/>
<path d="M159.869 88.8601C162.029 87.9701 167.189 89.4201 168.959 89.7901C169.379 89.8901 169.789 90.02 170.199 90.2H170.219C170.509 90.33 170.659 90.64 170.589 90.95C170.529 91.26 170.259 91.49 169.949 91.49L165.599 91.6201" stroke="#273139" stroke-width="0.5" stroke-linecap="round" stroke-linejoin="round"/>
<path d="M163.609 90.9199C164.589 91.0199 165.479 91.5199 166.079 92.2999C166.249 92.5099 166.259 92.8099 166.119 93.0499C165.979 93.2899 165.689 93.4099 165.429 93.3599C164.569 93.1899 159.979 92.1099 159.119 91.7599" stroke="#273139" stroke-width="0.5" stroke-linecap="round" stroke-linejoin="round"/>
<path d="M121.73 99.2199C122.96 100.5 130.96 102.48 134.74 99.1799" stroke="#273139" stroke-width="0.5" stroke-linecap="round" stroke-linejoin="round"/>
<path d="M120.64 98.58C120.59 97.3 121.98 96.39 123.24 96.4C124.5 96.41 125.67 97.07 126.82 97.64C127.98 98.2 129.24 98.7 130.47 98.38C131.38 98.14 132.13 97.49 133.03 97.27C133.94 97.06 135.16 97.65 135 98.57" stroke="#273139" stroke-width="0.5" stroke-linecap="round" stroke-linejoin="round"/>
<path d="M111.111 84.75C109.791 85.25 109.071 86.78 109.041 88.2C108.991 89.63 109.471 91.01 109.831 92.37C110.181 93.74 110.431 95.24 109.911 96.58C109.411 97.92 107.931 98.96 106.561 98.55" stroke="white" stroke-width="0.5" stroke-linecap="round" stroke-linejoin="round"/>
<path d="M117.61 82.8C117.32 81.45 117.969 80.09 119.199 79.47" stroke="#273139" stroke-width="0.5" stroke-linecap="round" stroke-linejoin="round"/>
<path d="M111.509 74.6799C109.359 74.7299 107.519 76.2199 107.029 78.3199" stroke="white" stroke-width="0.5" stroke-linecap="round" stroke-linejoin="round"/>
<path d="M132.051 80.08C132.911 80.93 134.141 81.28 135.321 81.02C136.501 80.77 137.471 79.94 137.901 78.8" stroke="white" stroke-width="0.5" stroke-linecap="round" stroke-linejoin="round"/>
<path d="M158.58 111.66C158.99 113.95 160.44 115.9 162.51 116.95C162.84 117.13 163.14 116.62 162.81 116.45C160.87 115.48 159.5 113.66 159.13 111.53C159.06 111.16 158.5 111.32 158.53 111.68L158.58 111.66Z" fill="#F48927"/>
<path d="M130.9 86.1899C130.9 87.0799 130.16 87.8099 129.27 87.8099C128.38 87.8099 127.65 87.0799 127.65 86.1899" stroke="#273139" stroke-width="0.5" stroke-linecap="round" stroke-linejoin="round"/>
<path d="M135.631 86.1799C135.631 87.0699 134.901 87.7999 134.011 87.7999C133.121 87.7999 132.381 87.0699 132.381 86.1799" stroke="#273139" stroke-width="0.5" stroke-linecap="round" stroke-linejoin="round"/>
<path d="M122.99 104.04C130.19 108.81 137.42 112.9 144.45 118.66" stroke="#273139" stroke-width="0.5" stroke-linecap="round" stroke-linejoin="round"/>
<path d="M124.84 117.21C131.82 120.31 135.2 122.9 142.19 126" stroke="#273139" stroke-width="0.5" stroke-linecap="round" stroke-linejoin="round"/>
<path d="M140.791 114.74C138.241 116.12 137.561 119.33 139.761 125.47" stroke="#273139" stroke-width="0.5" stroke-linecap="round" stroke-linejoin="round"/>
<path d="M123.03 103.76C122.14 104.86 121.18 105.91 120.36 107.02C119.55 108.13 118.88 109.33 118.88 110.6C118.88 111.89 119.33 113.14 120.17 114.11C120.61 114.62 121.1 115.06 121.64 115.43C122.2 115.82 122.78 116.19 123.38 116.51L123.03 117.24C121.63 116.74 120.37 115.93 119.32 114.86C118.8 114.29 118.39 113.62 118.13 112.88C117.88 112.14 117.75 111.37 117.77 110.59C117.82 109.8 118.03 109.04 118.4 108.35C118.76 107.71 119.2 107.1 119.69 106.56C120.66 105.5 121.69 104.5 122.79 103.58L123.03 103.77V103.76Z" fill="#273139"/>
<path d="M124.301 117.06C124.301 117.06 134.731 124.71 137.901 126.5L138.201 123.32L124.301 117.06Z" fill="#273139"/>
<path d="M176.543 116.547L161.55 113.869C155.339 112.759 151.199 106.818 152.309 100.606C153.473 94.0897 159.716 89.7398 166.232 90.9041L180.664 93.4825C182.298 93.7745 183.381 95.3293 183.089 96.9634L180.024 114.122C179.732 115.756 178.177 116.839 176.543 116.547Z" stroke="#92A2B1" stroke-width="0.5" stroke-linecap="round" stroke-linejoin="round"/>
<path d="M28.4707 220.55H128.661" stroke="#CFD7DF" stroke-width="0.5"/>
<path d="M131.58 223.98V211.9H184.58" stroke="#CFD7DF" stroke-width="0.5"/>
<path d="M54.7492 220.15C57.1892 214.85 58.4192 209.06 58.3292 203.24C58.3292 195.46 56.4192 188.16 53.4992 184.24H40.2792C37.3492 188.16 35.4392 195.46 35.4392 203.24C35.3592 209.06 36.5792 214.85 39.0192 220.15H54.7592H54.7492Z" fill="#CFD7DF"/>
<path d="M46.6309 184.24C46.6309 184.24 49.8909 190.52 49.8909 204.52C49.8909 218.52 46.6309 220.15 46.6309 220.15H54.7709C57.2309 214.85 58.4509 209.06 58.3609 203.24C58.3609 195.46 56.4409 188.16 53.5209 184.24H46.6409H46.6309Z" fill="white"/>
<path d="M29.5906 124.93C29.5906 124.93 29.3406 132.07 30.1606 135.08C31.0006 138.08 32.6506 144.35 32.6506 144.35L37.0206 140.75L33.5606 146.63C33.5606 146.63 37.4806 156.38 37.4806 157.39C37.4806 158.4 37.0206 164.13 37.0206 164.13L42.2406 160.29L37.2006 167.54C37.9306 169.13 38.8606 170.64 39.9606 172.01C41.7406 174.23 43.6606 176.42 43.6606 176.42C43.6606 176.42 47.7906 166.18 47.5506 163.05C47.3106 159.92 48.0506 150.93 48.0506 150.93L45.5806 156.57L47.5406 145.98C47.5406 145.98 47.4006 139.4 45.5206 136.12C44.0106 133.25 42.6706 130.28 41.5106 127.25L40.4106 135.86L39.4406 124.76C39.4406 124.76 35.4706 123.51 33.5606 123.81C32.2006 124.05 30.8606 124.42 29.5806 124.95L29.5906 124.93Z" fill="#CFD7DF" stroke="#92A2B1" stroke-width="0.5"/>
<path d="M57.3904 121.08C57.3904 121.08 50.9504 128.95 50.2504 132.4C49.7404 134.78 49.0504 137.13 48.1904 139.41L51.3504 137.33L48.1904 141.31C48.1904 141.31 48.1904 152.57 48.7304 154.2C49.2704 155.85 48.7304 159.93 48.7304 159.93L51.6904 156.3L47.9404 164.59C47.9404 164.59 46.8704 171.99 48.7604 174.19C50.1404 175.91 51.2804 177.82 52.1704 179.84C52.1704 179.84 57.0104 172 57.8104 170.05C58.6204 168.09 59.4604 163.36 59.4604 163.36L55.2904 155.3L60.2704 161.27C60.2704 161.27 61.2604 148.43 61.4504 145.55C61.5504 143.47 61.5204 141.4 61.3204 139.35L56.4404 135.8L61.3104 137.16C61.3104 137.16 61.9104 134.72 60.8104 130.89C59.7304 127.05 57.4004 121.07 57.4004 121.07L57.3904 121.08Z" fill="#CFD7DF" stroke="#92A2B1" stroke-width="0.5"/>
<path d="M43.8209 187.61C43.8209 187.61 43.9909 167.92 44.2509 154.73C44.5209 141.54 30.9609 125.95 30.9609 125.95" stroke="#92A2B1" stroke-width="0.5"/>
<path d="M53.1601 187.65C52.5201 179.46 52.4301 171.22 52.8901 163.02C53.7101 151.18 54.7701 128.15 54.7701 128.15" stroke="#92A2B1" stroke-width="0.5"/>
<path d="M56.7102 220.48C59.1502 215.18 60.3802 209.39 60.2902 203.57C60.2902 195.79 58.3802 188.49 55.4602 184.57H42.2402C39.3102 188.49 37.4002 195.79 37.4002 203.57C37.3202 209.39 38.5402 215.18 40.9802 220.48H56.7202H56.7102Z" stroke="#92A2B1" stroke-width="0.5"/>
<path d="M48.5898 184.57C48.5898 184.57 51.8498 190.85 51.8498 204.85C51.8498 218.85 48.5898 220.48 48.5898 220.48H56.7298C59.1898 215.18 60.4098 209.39 60.3198 203.57C60.3198 195.79 58.3998 188.49 55.4798 184.57H48.5998H48.5898Z" stroke="#B1BDC7" stroke-width="0.5"/>
<path opacity="0.72" d="M355.45 172.17H332.43V203.86H355.45V172.17Z" fill="white"/>
<path d="M336.38 208.49H331.02V216.29H336.38V208.49Z" stroke="#92A2B1" stroke-width="0.5"/>
<path d="M353.45 208.49H348.09V216.29H353.45V208.49Z" stroke="#92A2B1" stroke-width="0.5"/>
<path d="M360.279 164.59H324.189V209.95H360.279V164.59Z" fill="white" stroke="#B1BDC7" stroke-width="0.5"/>
<path d="M354.81 170.08H329.68V204.47H354.81V170.08Z" fill="white" stroke="#B1BDC7" stroke-width="0.5"/>
<path d="M351.481 175.42H332.971V177.28H351.481V175.42Z" fill="white" stroke="#B1BDC7" stroke-width="0.5"/>
<path d="M351.481 181.1H332.971V182.96H351.481V181.1Z" fill="white" stroke="#B1BDC7" stroke-width="0.5"/>
<path d="M351.481 186.79H332.971V188.65H351.481V186.79Z" fill="white" stroke="#B1BDC7" stroke-width="0.5"/>
<path d="M351.481 192.5H332.971V194.36H351.481V192.5Z" fill="white" stroke="#B1BDC7" stroke-width="0.5"/>
<g opacity="0.9">
<path d="M53.9099 8.87009C58.1699 10.2701 61.3499 13.4301 63.4299 18.3601C65.3499 22.9101 65.3499 27.0801 63.4499 30.8801C61.5499 34.6701 58.1599 37.6301 53.2899 39.7401L55.2199 45.3401L44.3299 49.9301L38.2799 36.5801L42.6299 34.7401C46.3599 33.1701 48.9999 31.5101 50.5799 29.7601C52.1499 28.0201 52.4299 25.9301 51.4099 23.5101C50.6999 21.8201 49.6699 20.6801 48.3499 20.1001C47.0199 19.5201 45.5399 19.5801 43.8899 20.2701C42.1499 21.0001 40.9999 22.0701 40.4499 23.4701C39.8999 24.8701 39.9799 26.4101 40.6999 28.1101L29.0099 33.0401C27.6699 30.1301 27.1599 27.2101 27.4899 24.2701C27.8199 21.3401 29.0099 18.6301 31.0699 16.1401C33.1299 13.6501 36.0199 11.6201 39.7399 10.0501C44.9199 7.87009 49.6399 7.47009 53.8999 8.87009H53.9099ZM51.7299 66.7601C49.8099 66.0601 48.4499 64.7701 47.6599 62.8801C46.8699 60.9901 46.8499 59.0301 47.6799 57.1401C48.5099 55.2501 50.0099 53.8501 52.1899 52.9301C54.3699 52.0101 56.3499 51.9501 58.2799 52.6701C60.2099 53.4001 61.5799 54.7301 62.3999 56.6601C63.2199 58.5901 63.1699 60.4201 62.3399 62.2801C61.4999 64.1501 60.0199 65.5301 57.8899 66.4201C55.7599 67.3101 53.6599 67.4501 51.7399 66.7401L51.7299 66.7601Z" fill="#CFD7DF"/>
</g>
<path d="M376.459 110.32C380.539 110.09 384.219 107.6 385.639 103.77C386.649 101.06 383.499 101.01 385.149 96.4801C389.869 83.5501 383.749 81.1 377.089 83.92C370.969 86.5 355.169 111.52 376.469 110.32H376.459Z" fill="#EBEFF3"/>
<g opacity="0.9">
<path d="M52.4392 7.40989C56.6992 8.80989 59.8792 11.9699 61.9592 16.8999C63.8792 21.4499 63.8792 25.6199 61.9792 29.4199C60.0792 33.2099 56.6892 36.1699 51.8192 38.2799L53.7492 43.8799L42.8592 48.4699L36.8092 35.1199L41.1592 33.2799C44.8892 31.7099 47.5292 30.0499 49.1092 28.2999C50.6792 26.5599 50.9592 24.4699 49.9392 22.0499C49.2292 20.3599 48.1992 19.2199 46.8792 18.6399C45.5492 18.0599 44.0692 18.1199 42.4192 18.8099C40.6792 19.5399 39.5292 20.6099 38.9792 22.0099C38.4292 23.4099 38.5092 24.9499 39.2292 26.6499L27.5392 31.5799C26.1992 28.6699 25.6892 25.7499 26.0192 22.8099C26.3492 19.8799 27.5392 17.1699 29.5992 14.6799C31.6592 12.1899 34.5492 10.1599 38.2692 8.58989C43.4492 6.40989 48.1692 6.00989 52.4292 7.40989H52.4392ZM50.2592 65.2999C48.3392 64.5999 46.9792 63.3099 46.1892 61.4199C45.3992 59.5299 45.3792 57.5699 46.2092 55.6799C47.0392 53.7899 48.5392 52.3899 50.7192 51.4699C52.8992 50.5499 54.8792 50.4899 56.8092 51.2099C58.7392 51.9399 60.1092 53.2699 60.9292 55.1999C61.7492 57.1299 61.6992 58.9599 60.8692 60.8199C60.0292 62.6899 58.5492 64.0699 56.4192 64.9599C54.2892 65.8499 52.1892 65.9899 50.2692 65.2799L50.2592 65.2999Z" stroke="#92A2B1" stroke-width="0.5" stroke-miterlimit="10"/>
</g>
<g opacity="0.9">
<path d="M353.95 70.94C353.66 70.1 353.71 69.25 354.12 68.41C354.53 67.57 355.15 67 355.99 66.71C356.83 66.42 357.68 66.47 358.52 66.88C359.36 67.29 359.89 67.89 360.18 68.73C360.47 69.57 360.42 70.42 360.01 71.26C359.6 72.1 358.98 72.67 358.14 72.96C357.3 73.25 356.47 73.21 355.65 72.81C354.83 72.41 354.24 71.78 353.95 70.94ZM371.75 45.38L361.7 64.85L357.84 62.99L366.83 43.01L371.75 45.39V45.38Z" fill="#CFD7DF"/>
</g>
<path d="M178.17 98.47L175.82 112.28" stroke="#92A2B1" stroke-width="0.5" stroke-linecap="round" stroke-linejoin="round"/>
<path d="M233.58 122.71C233.58 122.71 245.42 125.96 248.05 123.38" stroke="#92A2B1" stroke-width="0.5" stroke-linecap="round" stroke-linejoin="round"/>
</g>
<defs>
<clipPath id="clip0_719_20075">
<rect width="397.52" height="223.98" fill="white"/>
</clipPath>
</defs>
</svg>
